<svg width="202" height="11" viewBox="0 0 202 11" fill="none" xmlns="http://www.w3.org/2000/svg">
<path fill-rule="evenodd" clip-rule="evenodd" d="M4.07023 9.29163H5.39956V6.52333C5.39956 6.1259 5.57772 5.8381 6.08478 5.8381C6.59185 5.8381 6.77001 6.1259 6.77001 6.52333V9.97685C6.77001 10.4702 6.4411 10.6621 6.08478 10.6621H0.685223C0.328907 10.6621 0 10.4702 0 9.97685C0 9.48349 0.328907 9.29163 0.685223 9.29163H2.69978V1.37045H0.685223C0.328907 1.37045 0 1.17858 0 0.685223C0 0.191863 0.328907 0 0.685223 0H4.07023V9.29163ZM12.2166 6.01625V9.29162H16.931C17.2873 9.29162 17.6162 9.48349 17.6162 9.97685C17.6162 10.4702 17.2873 10.6621 16.931 10.6621H10.8462V6.19441C10.8462 5.16658 11.3669 4.64581 12.3948 4.64581H16.2457V1.37044H11.5314C11.1751 1.37044 10.8462 1.17858 10.8462 0.685216C10.8462 0.191855 11.1751 -7.09862e-06 11.5314 -7.09862e-06H16.0813C16.5335 -7.09862e-06 16.8487 0.0685152 17.1913 0.383718C17.5751 0.740034 17.6162 1.11005 17.6162 1.60342V4.41283C17.6162 4.90619 17.5751 5.27621 17.1913 5.63253C16.8487 5.94773 16.5335 6.01625 16.0813 6.01625H12.2166ZM27.0917 1.37044H22.3773C22.021 1.37044 21.6921 1.17858 21.6921 0.685216C21.6921 0.191855 22.021 -7.09862e-06 22.3773 -7.09862e-06H27.0917C27.8728 -7.09862e-06 28.4621 0.589285 28.4621 1.37044V4.0017C28.4621 4.54988 28.3525 4.94731 27.9276 5.33103C28.3525 5.71476 28.4621 6.11219 28.4621 6.66036V9.29162C28.4621 10.0728 27.8728 10.6621 27.0917 10.6621H22.3773C22.021 10.6621 21.6921 10.4702 21.6921 9.97685C21.6921 9.48349 22.021 9.29162 22.3773 9.29162H27.0917V7.01668C27.0917 6.24923 26.7902 6.01625 26.4064 6.01625H23.7204C23.3641 6.01625 23.0352 5.82439 23.0352 5.33103C23.0352 4.83767 23.3641 4.64581 23.7204 4.64581H26.4064C26.7902 4.64581 27.0917 4.41283 27.0917 3.64538V1.37044ZM34.5939 5.81069H37.2526V1.8501C37.2526 1.50748 37.417 1.16487 37.9378 1.16487C38.4586 1.16487 38.623 1.50748 38.623 1.8501V5.81069C38.9794 5.81069 39.3083 6.00255 39.3083 6.49591C39.3083 6.98927 38.9794 7.18113 38.623 7.18113V9.97685C38.623 10.4154 38.4312 10.6621 37.9378 10.6621C37.4445 10.6621 37.2526 10.4154 37.2526 9.97685V7.18113H33.2235V0.685216C33.2235 0.342605 33.3879 -7.09862e-06 33.9087 -7.09862e-06C34.4295 -7.09862e-06 34.5939 0.342605 34.5939 0.685216V5.81069ZM56.9576 1.37044V4.64581H59.4792C59.9178 4.64581 60.2467 4.71433 60.5756 5.02953C60.9593 5.38585 61.0004 5.71476 61.0004 6.19441V9.12717C61.0004 9.55201 60.9593 9.85351 60.6715 10.1961C60.3289 10.6073 59.9726 10.6621 59.4792 10.6621H56.4368C56.0805 10.6621 55.875 10.5661 55.5324 10.4154L55.0116 10.1824C54.6416 10.018 54.2304 9.89462 54.2304 9.41496C54.2304 9.05865 54.5319 8.72974 54.8882 8.72974C55.0527 8.72974 55.176 8.77085 55.3268 8.83938L55.7379 9.01753C55.9298 9.09976 56.245 9.29162 56.4643 9.29162H59.63V6.01625H55.5872V-7.09862e-06H60.3152C60.6715 -7.09862e-06 61.0004 0.191855 61.0004 0.685216C61.0004 1.17858 60.6715 1.37044 60.3152 1.37044H56.9576ZM66.4471 1.37044V5.81069H71.0244C71.7096 5.81069 71.8466 6.09848 71.8466 6.72889V9.79869C71.8466 10.4428 71.5725 10.6621 70.9558 10.6621H65.9674C65.3233 10.6621 65.0766 10.4291 65.0766 9.79869V0.685216C65.0766 0.370014 65.1862 -7.09862e-06 65.6659 -7.09862e-06H66.4882C66.8445 -7.09862e-06 67.1323 0.3289 67.1323 0.685216C67.1323 1.09635 66.8445 1.37044 66.4471 1.37044ZM70.4761 7.18119H66.447V9.29168H70.4761V7.18119ZM81.3224 1.37044H77.2932C77.2932 1.67194 77.0466 2.05566 76.608 2.05566C76.1695 2.05566 75.9228 1.67194 75.9228 1.37044V0.685216C75.9228 0.383718 76.1695 -7.09862e-06 76.608 -7.09862e-06H82.6929L82.6928 3.97429C82.6928 4.45395 82.7065 4.50876 82.3228 4.83767L80.4042 6.49591C80.0478 6.81111 80.0204 6.83852 80.0204 7.31818V9.97685C80.0204 10.4154 79.8286 10.6621 79.3352 10.6621C78.8418 10.6621 78.65 10.4154 78.65 9.97685V6.67407C78.65 6.22182 78.6637 6.18071 79.0063 5.87921L80.8975 4.24838C81.3498 3.85095 81.3224 3.86465 81.3224 3.26166V1.37044ZM89.5097 4.64583H90.7979V1.37046H89.5097V4.64583ZM88.8244 -7.09862e-06H91.4831C91.949 -7.09862e-06 92.1683 0.3289 92.1683 0.685216V4.64581C92.5931 4.64581 92.922 4.79656 93.1687 5.02953C93.4154 5.26251 93.5387 5.60512 93.5387 6.02996V9.29162C93.5387 10.1276 93.018 10.6621 92.1683 10.6621H88.1392C87.2895 10.6621 86.7687 10.1276 86.7687 9.29162V6.02996C86.7687 5.60512 86.8921 5.26251 87.1388 5.02953C87.3854 4.79656 87.7144 4.64581 88.1392 4.64581V0.685216C88.1392 0.3289 88.3585 -7.09862e-06 88.8244 -7.09862e-06ZM88.1393 9.29162H92.1684V6.01625H88.1393V9.29162ZM113.861 9.29162V4.87878H109.146C108.763 4.87878 108.461 4.54988 108.461 4.19356V0.685216C108.461 0.3289 108.763 -7.09862e-06 109.146 -7.09862e-06H114.546C114.93 -7.09862e-06 115.231 0.3289 115.231 0.685216V9.97685C115.231 10.3469 114.957 10.6621 114.546 10.6621H113.861C113.45 10.6621 113.175 10.3469 113.175 9.97685C113.175 9.56571 113.463 9.29162 113.861 9.29162ZM109.831 3.50836H113.861V1.37046H109.831V3.50836ZM120.678 -7.09862e-06H124.707C125.46 -7.09862e-06 126.077 0.616694 126.077 1.37044V9.29162C126.077 10.0591 125.488 10.6621 124.707 10.6621H120.678C119.896 10.6621 119.307 10.0591 119.307 9.29162V1.37044C119.307 0.616694 119.924 -7.09862e-06 120.678 -7.09862e-06ZM120.678 9.29165H124.707V1.37046H120.678V9.29165ZM134.223 9.29162H135.553V6.52332C135.553 6.12589 135.731 5.8381 136.238 5.8381C136.745 5.8381 136.923 6.12589 136.923 6.52332V9.97685C136.923 10.4702 136.594 10.6621 136.238 10.6621H130.838C130.482 10.6621 130.153 10.4702 130.153 9.97685C130.153 9.48349 130.482 9.29162 130.838 9.29162H132.853V1.37044H130.838C130.482 1.37044 130.153 1.17858 130.153 0.685216C130.153 0.191855 130.482 -7.09862e-06 130.838 -7.09862e-06H134.223V9.29162ZM142.37 6.01625V9.29162H147.084C147.441 9.29162 147.769 9.48349 147.769 9.97685C147.769 10.4702 147.441 10.6621 147.084 10.6621H140.999V6.19441C140.999 5.16658 141.52 4.64581 142.548 4.64581H146.399V1.37044H141.685C141.328 1.37044 140.999 1.17858 140.999 0.685216C140.999 0.191855 141.328 -7.09862e-06 141.685 -7.09862e-06H146.235C146.687 -7.09862e-06 147.002 0.0685152 147.345 0.383718C147.728 0.740034 147.769 1.11005 147.769 1.60342V4.41283C147.769 4.90619 147.728 5.27621 147.345 5.63253C147.002 5.94773 146.687 6.01625 146.235 6.01625H142.37ZM168.091 1.37044H163.377C163.02 1.37044 162.692 1.17858 162.692 0.685216C162.692 0.191855 163.02 -7.09862e-06 163.377 -7.09862e-06H168.091C168.872 -7.09862e-06 169.462 0.589285 169.462 1.37044V4.0017C169.462 4.54988 169.352 4.94731 168.927 5.33103C169.352 5.71476 169.462 6.11219 169.462 6.66036V9.29162C169.462 10.0728 168.872 10.6621 168.091 10.6621H163.377C163.02 10.6621 162.692 10.4702 162.692 9.97685C162.692 9.48349 163.02 9.29162 163.377 9.29162H168.091V7.01668C168.091 6.24923 167.79 6.01625 167.406 6.01625H164.72C164.364 6.01625 164.035 5.82439 164.035 5.33103C164.035 4.83767 164.364 4.64581 164.72 4.64581H167.406C167.79 4.64581 168.091 4.41283 168.091 3.64538V1.37044ZM175.593 5.81069H178.252V1.8501C178.252 1.50748 178.416 1.16487 178.937 1.16487C179.458 1.16487 179.622 1.50748 179.622 1.8501V5.81069C179.979 5.81069 180.308 6.00255 180.308 6.49591C180.308 6.98927 179.979 7.18113 179.622 7.18113V9.97685C179.622 10.4154 179.431 10.6621 178.937 10.6621C178.444 10.6621 178.252 10.4154 178.252 9.97685V7.18113H174.223V0.685216C174.223 0.342605 174.387 -7.09862e-06 174.908 -7.09862e-06C175.429 -7.09862e-06 175.593 0.342605 175.593 0.685216V5.81069ZM187.111 1.37044V4.64581H189.633C190.071 4.64581 190.4 4.71433 190.729 5.02953C191.113 5.38585 191.154 5.71476 191.154 6.19441V9.12717C191.154 9.55201 191.113 9.85351 190.825 10.1961C190.482 10.6073 190.126 10.6621 189.633 10.6621H186.59C186.234 10.6621 186.028 10.5661 185.686 10.4154L185.165 10.1824C184.795 10.018 184.384 9.89462 184.384 9.41496C184.384 9.05865 184.685 8.72974 185.042 8.72974C185.206 8.72974 185.33 8.77085 185.48 8.83938L185.891 9.01753C186.083 9.09976 186.398 9.29162 186.618 9.29162H189.783V6.01625H185.741V-7.09862e-06H190.469C190.825 -7.09862e-06 191.154 0.191855 191.154 0.685216C191.154 1.17858 190.825 1.37044 190.469 1.37044H187.111ZM196.6 1.37044V5.81069H201.178C201.863 5.81069 202 6.09848 202 6.72889V9.79869C202 10.4428 201.726 10.6621 201.109 10.6621H196.121C195.477 10.6621 195.23 10.4291 195.23 9.79869V0.685216C195.23 0.370014 195.34 -7.09862e-06 195.819 -7.09862e-06H196.641C196.998 -7.09862e-06 197.286 0.3289 197.286 0.685216C197.286 1.09635 196.998 1.37044 196.6 1.37044ZM200.63 7.18119H196.6V9.29168H200.63V7.18119Z" fill="white"/>
</svg>
