<svg width="329" height="55" viewBox="0 0 329 55" fill="none" xmlns="http://www.w3.org/2000/svg">
<mask id="path-1-inside-1_0_61" fill="white">
</mask>
<path d="M328 4.5V50.5H329V4.5H328ZM324.5 54H4.5V55H324.5V54ZM1 50.5V4.5H0V50.5H1ZM4.5 1H11.6358V0H4.5V1ZM316.5 1H324.5V0H316.5V1ZM4.5 54C2.567 54 1 52.433 1 50.5H0C0 52.9853 2.01471 55 4.5 55V54ZM328 50.5C328 52.433 326.433 54 324.5 54V55C326.985 55 329 52.9853 329 50.5H328ZM329 4.5C329 2.01472 326.985 0 324.5 0V1C326.433 1 328 2.567 328 4.5H329ZM1 4.5C1 2.567 2.567 1 4.5 1V0C2.01472 0 0 2.01472 0 4.5H1Z" fill="black" fill-opacity="0.6" mask="url(#path-1-inside-1_0_61)"/>
</svg>
