<svg width="6" height="8" viewBox="0 0 6 8" fill="none" xmlns="http://www.w3.org/2000/svg">
<path fill-rule="evenodd" clip-rule="evenodd" d="M0.375326 6.39807C0.386576 6.39807 0.397826 6.39767 0.409076 6.39647L1.97283 6.2451C2.14458 6.22829 2.3062 6.1474 2.42808 6.01726L5.80195 2.41452C6.07495 2.1222 6.06333 1.63447 5.77645 1.32773L5.77608 1.32733L4.74933 0.230933C4.47145 -0.0649902 3.99408 -0.0790055 3.73083 0.203303L0.357326 3.80564C0.235076 3.93578 0.159326 4.10877 0.143576 4.29177L0.0014509 5.96159C-0.0082991 6.07972 0.0314509 6.19665 0.109826 6.28074C0.180701 6.35643 0.276326 6.39807 0.375326 6.39807V6.39807Z" fill="#8D8B8B"/>
<path fill-rule="evenodd" clip-rule="evenodd" d="M5.625 7.19922H0.375C0.16875 7.19922 0 7.37942 0 7.59966C0 7.8199 0.16875 8.00009 0.375 8.00009H5.625C5.83125 8.00009 6 7.8199 6 7.59966C6 7.37942 5.83125 7.19922 5.625 7.19922" fill="#8D8B8B"/>
</svg>
