<svg width="23" height="5" viewBox="0 0 23 5" fill="none" xmlns="http://www.w3.org/2000/svg">
<path fill-rule="evenodd" clip-rule="evenodd" d="M2.14912 4.84354C2.04186 4.84354 1.95666 4.80645 1.89251 4.73127C1.82836 4.65709 1.80129 4.56086 1.81232 4.44258L1.92458 2.95103C1.93461 2.91895 1.9296 2.8979 1.90855 2.88688C1.88649 2.86583 1.86544 2.86583 1.84439 2.88688L0.593414 3.75294C0.518235 3.79604 0.443055 3.81709 0.368879 3.81709C0.229547 3.81709 0.128306 3.75895 0.0641528 3.64067C0.0210501 3.55547 0 3.49132 0 3.44821C0 3.30988 0.080191 3.19762 0.240573 3.11141L1.61986 2.46988C1.65194 2.45986 1.66797 2.44382 1.66797 2.42177C1.66797 2.40072 1.65194 2.38468 1.61986 2.37365L0.240573 1.71609C0.0902149 1.65194 0.0160382 1.53967 0.0160382 1.37929C0.0160382 1.31513 0.0320764 1.25098 0.0641528 1.18683C0.128306 1.06955 0.229547 1.01041 0.368879 1.01041C0.443055 1.01041 0.518235 1.03246 0.593414 1.07456L1.84439 1.94062C1.86544 1.96268 1.88649 1.96769 1.90855 1.95666C1.9296 1.94664 1.93461 1.92458 1.92458 1.89251L1.81232 0.400955C1.80129 0.283676 1.83337 0.187447 1.90855 0.112267C1.98272 0.0380907 2.07394 0 2.1812 0C2.28745 0 2.37365 0.0380907 2.43781 0.112267C2.50196 0.187447 2.52802 0.283676 2.518 0.400955L2.40573 1.89251C2.3947 1.92458 2.39972 1.94664 2.42177 1.95666C2.44282 1.96769 2.46988 1.96268 2.50196 1.94062L3.7369 1.0906C3.81108 1.03747 3.88626 1.01041 3.96144 1.01041C4.11079 1.01041 4.21805 1.07456 4.2822 1.20287C4.31428 1.26702 4.33032 1.33117 4.33032 1.39532C4.33032 1.54568 4.25012 1.65194 4.08974 1.71609L2.72649 2.37365C2.69442 2.38468 2.67838 2.40072 2.67838 2.42177C2.67838 2.44382 2.69442 2.45986 2.72649 2.46988L4.08974 3.11141C4.25012 3.18659 4.33032 3.30387 4.33032 3.46425C4.33032 3.51838 4.31428 3.57652 4.2822 3.64067C4.21805 3.75895 4.11079 3.81709 3.96144 3.81709C3.88626 3.81709 3.81108 3.79604 3.7369 3.75294L2.50196 2.88688C2.46988 2.86583 2.44282 2.86583 2.42177 2.88688C2.39972 2.8979 2.3947 2.91895 2.40573 2.95103L2.518 4.44258C2.52802 4.56086 2.49595 4.65709 2.42177 4.73127C2.34659 4.80645 2.25537 4.84354 2.14912 4.84354ZM11.4835 4.84357C11.3762 4.84357 11.291 4.80648 11.2269 4.7313C11.1627 4.65712 11.1356 4.5609 11.1467 4.44261L11.2589 2.95106C11.27 2.91898 11.2639 2.89793 11.2429 2.88691C11.2218 2.86586 11.1998 2.86586 11.1787 2.88691L9.92777 3.75297C9.85259 3.79607 9.77841 3.81712 9.70323 3.81712C9.5639 3.81712 9.46266 3.75899 9.39851 3.6407C9.3554 3.5555 9.33435 3.49135 9.33435 3.44824C9.33435 3.30992 9.41454 3.19765 9.57493 3.11144L10.9542 2.46991C10.9863 2.45989 11.0023 2.44385 11.0023 2.4218C11.0023 2.40075 10.9863 2.38471 10.9542 2.37369L9.57493 1.71612C9.42557 1.65197 9.35039 1.5397 9.35039 1.37932C9.35039 1.31516 9.36643 1.25101 9.39851 1.18686C9.46266 1.06958 9.5639 1.01044 9.70323 1.01044C9.77841 1.01044 9.85259 1.03249 9.92777 1.07459L11.1787 1.94065C11.1998 1.96271 11.2218 1.96772 11.2429 1.95669C11.2639 1.94667 11.27 1.92462 11.2589 1.89254L11.1467 0.400986C11.1356 0.283706 11.1677 0.187477 11.2429 0.112298C11.3181 0.0381214 11.4083 3.06914e-05 11.5155 3.06914e-05C11.6228 3.06914e-05 11.708 0.0381214 11.7722 0.112298C11.8363 0.187477 11.8634 0.283706 11.8524 0.400986L11.7401 1.89254C11.7291 1.92462 11.7351 1.94667 11.7561 1.95669C11.7772 1.96772 11.8042 1.96271 11.8363 1.94065L13.0713 1.09063C13.1464 1.0375 13.2206 1.01044 13.2958 1.01044C13.4451 1.01044 13.5524 1.07459 13.6166 1.2029C13.6486 1.26705 13.6647 1.3312 13.6647 1.39535C13.6647 1.54571 13.5845 1.65197 13.4241 1.71612L12.0608 2.37369C12.0288 2.38471 12.0127 2.40075 12.0127 2.4218C12.0127 2.44385 12.0288 2.45989 12.0608 2.46991L13.4241 3.11144C13.5845 3.18662 13.6647 3.3039 13.6647 3.46428C13.6647 3.51841 13.6486 3.57655 13.6166 3.6407C13.5524 3.75899 13.4451 3.81712 13.2958 3.81712C13.2206 3.81712 13.1464 3.79607 13.0713 3.75297L11.8363 2.88691C11.8042 2.86586 11.7772 2.86586 11.7561 2.88691C11.7351 2.89793 11.7291 2.91898 11.7401 2.95106L11.8524 4.44261C11.8634 4.5609 11.8313 4.65712 11.7561 4.7313C11.6809 4.80648 11.5907 4.84357 11.4835 4.84357ZM20.5621 4.7313C20.6262 4.80648 20.7114 4.84357 20.8187 4.84357C20.925 4.84357 21.0162 4.80648 21.0913 4.7313C21.1655 4.65712 21.1976 4.5609 21.1876 4.44261L21.0753 2.95106C21.0643 2.91898 21.0693 2.89793 21.0913 2.88691C21.1124 2.86586 21.1395 2.86586 21.1715 2.88691L22.4065 3.75297C22.4807 3.79607 22.5558 3.81712 22.631 3.81712C22.7804 3.81712 22.8876 3.75899 22.9518 3.6407C22.9839 3.57655 22.9999 3.51841 22.9999 3.46428C22.9999 3.3039 22.9197 3.18662 22.7593 3.11144L21.3961 2.46991C21.364 2.45989 21.348 2.44385 21.348 2.4218C21.348 2.40075 21.364 2.38471 21.3961 2.37369L22.7593 1.71612C22.9197 1.65197 22.9999 1.54571 22.9999 1.39535C22.9999 1.3312 22.9839 1.26705 22.9518 1.2029C22.8876 1.07459 22.7804 1.01044 22.631 1.01044C22.5558 1.01044 22.4807 1.0375 22.4065 1.09063L21.1715 1.94065C21.1395 1.96271 21.1124 1.96772 21.0913 1.95669C21.0693 1.94667 21.0643 1.92462 21.0753 1.89254L21.1876 0.400986C21.1976 0.283706 21.1715 0.187477 21.1074 0.112298C21.0432 0.0381214 20.957 3.06914e-05 20.8508 3.06914e-05C20.7435 3.06914e-05 20.6523 0.0381214 20.5781 0.112298C20.5029 0.187477 20.4709 0.283706 20.4819 0.400986L20.5942 1.89254C20.6042 1.92462 20.5992 1.94667 20.5781 1.95669C20.5561 1.96772 20.535 1.96271 20.514 1.94065L19.263 1.07459C19.1878 1.03249 19.1126 1.01044 19.0385 1.01044C18.8991 1.01044 18.7979 1.06958 18.7337 1.18686C18.7017 1.25101 18.6856 1.31516 18.6856 1.37932C18.6856 1.5397 18.7598 1.65197 18.9102 1.71612L20.2894 2.37369C20.3215 2.38471 20.3376 2.40075 20.3376 2.4218C20.3376 2.44385 20.3215 2.45989 20.2894 2.46991L18.9102 3.11144C18.7498 3.19765 18.6696 3.30992 18.6696 3.44824C18.6696 3.49135 18.6906 3.5555 18.7337 3.6407C18.7979 3.75899 18.8991 3.81712 19.0385 3.81712C19.1126 3.81712 19.1878 3.79607 19.263 3.75297L20.514 2.88691C20.535 2.86586 20.5561 2.86586 20.5781 2.88691C20.5992 2.89793 20.6042 2.91898 20.5942 2.95106L20.4819 4.44261C20.4709 4.5609 20.4979 4.65712 20.5621 4.7313Z" fill="white"/>
</svg>
