<svg width="401" height="328" viewBox="0 0 401 328" fill="none" xmlns="http://www.w3.org/2000/svg">
<g filter="url(#filter0_d_111_3841)">
<path d="M54 60C54 54.4772 58.4772 50 64 50H337C342.523 50 347 54.4772 347 60V260C347 265.523 342.523 270 337 270H64C58.4771 270 54 265.523 54 260V60Z" fill="white"/>
<path d="M64 50.5H337C342.247 50.5 346.5 54.7533 346.5 60V260C346.5 265.247 342.247 269.5 337 269.5H64C58.7533 269.5 54.5 265.247 54.5 260V60C54.5 54.7533 58.7533 50.5 64 50.5Z" stroke="#F9FAFC"/>
</g>
<defs>
<filter id="filter0_d_111_3841" x="0" y="0" width="401" height="328" filterUnits="userSpaceOnUse" color-interpolation-filters="sRGB">
<feFlood flood-opacity="0" result="BackgroundImageFix"/>
<feColorMatrix in="SourceAlpha" type="matrix" values="0 0 0 0 0 0 0 0 0 0 0 0 0 0 0 0 0 0 127 0" result="hardAlpha"/>
<feOffset dy="4"/>
<feGaussianBlur stdDeviation="27"/>
<feColorMatrix type="matrix" values="0 0 0 0 0 0 0 0 0 0 0 0 0 0 0 0 0 0 0.04 0"/>
<feBlend mode="normal" in2="BackgroundImageFix" result="effect1_dropShadow_111_3841"/>
<feBlend mode="normal" in="SourceGraphic" in2="effect1_dropShadow_111_3841" result="shape"/>
</filter>
</defs>
</svg>
