<svg width="26" height="14" viewBox="0 0 26 14" fill="none" xmlns="http://www.w3.org/2000/svg">
<path fill-rule="evenodd" clip-rule="evenodd" d="M9.24035 13.8644C9.3207 13.9548 9.42119 14 9.54175 14C9.64216 14 9.72759 13.9755 9.79794 13.9246C9.86821 13.8747 9.93856 13.789 10.0089 13.6685L16.5644 0.678149C16.6045 0.587729 16.6246 0.497309 16.6246 0.406889C16.6246 0.286329 16.5844 0.1912 16.5041 0.12056C16.4236 0.0405005 16.3332 0 16.2328 0C16.1222 0 16.0268 0.0301399 15.9465 0.0904198C15.8761 0.141281 15.8058 0.231701 15.7355 0.361679L9.18007 13.3369C9.13986 13.4076 9.11979 13.4829 9.11979 13.563C9.11979 13.6835 9.15992 13.7843 9.24035 13.8644ZM2.01938 6.01269C1.91888 6.01269 1.83854 5.97784 1.77826 5.9072C1.71798 5.8375 1.69283 5.74708 1.70291 5.63594L1.8084 4.23443C1.81838 4.20429 1.81339 4.18451 1.79333 4.17415C1.77317 4.15437 1.75311 4.15437 1.73305 4.17415L0.557589 4.98793C0.487231 5.02843 0.416873 5.04821 0.346609 5.04821C0.215971 5.04821 0.12056 4.99358 0.0602799 4.88244C0.0200619 4.80238 0 4.7421 0 4.7016C0 4.57162 0.0753498 4.46613 0.226049 4.38513L1.52207 3.78233C1.55221 3.77291 1.56728 3.75784 1.56728 3.73712C1.56728 3.71734 1.55221 3.70227 1.52207 3.69191L0.226049 3.07404C0.0853337 3.01377 0.01507 2.90828 0.01507 2.75758C0.01507 2.6973 0.0301399 2.63702 0.0602799 2.57674C0.12056 2.46654 0.215971 2.41097 0.346609 2.41097C0.416873 2.41097 0.487231 2.43169 0.557589 2.47125L1.73305 3.28502C1.75311 3.30575 1.77317 3.31046 1.79333 3.30009C1.81339 3.29068 1.81838 3.26995 1.8084 3.23981L1.70291 1.83831C1.69283 1.72811 1.72297 1.63769 1.79333 1.56705C1.86359 1.49735 1.94902 1.46156 2.04952 1.46156C2.14992 1.46156 2.23035 1.49735 2.29063 1.56705C2.35091 1.63769 2.37597 1.72811 2.36598 1.83831L2.2605 3.23981C2.25042 3.26995 2.25541 3.29068 2.27556 3.30009C2.29563 3.31046 2.32077 3.30575 2.35091 3.28502L3.5113 2.48632C3.58157 2.4364 3.65192 2.41097 3.72228 2.41097C3.8629 2.41097 3.9634 2.47125 4.02368 2.59181C4.05382 2.65209 4.06889 2.71237 4.06889 2.77265C4.06889 2.91393 3.99354 3.01377 3.84284 3.07404L2.56189 3.69191C2.53175 3.70227 2.51668 3.71734 2.51668 3.73712C2.51668 3.75784 2.53175 3.77291 2.56189 3.78233L3.84284 4.38513C3.99354 4.45577 4.06889 4.56597 4.06889 4.71667C4.06889 4.76753 4.05382 4.82216 4.02368 4.88244C3.9634 4.99358 3.8629 5.04821 3.72228 5.04821C3.65192 5.04821 3.58157 5.02843 3.5113 4.98793L2.35091 4.17415C2.32077 4.15437 2.29563 4.15437 2.27556 4.17415C2.25541 4.18451 2.25042 4.20429 2.2605 4.23443L2.36598 5.63594C2.37597 5.74708 2.34583 5.8375 2.27556 5.9072C2.20521 5.97784 2.11978 6.01269 2.01938 6.01269ZM6.66987 6.01269C6.56938 6.01269 6.48903 5.97784 6.42875 5.9072C6.36847 5.8375 6.34333 5.74708 6.3534 5.63594L6.45889 4.23443C6.46888 4.20429 6.46389 4.18451 6.44382 4.17415C6.42367 4.15437 6.40361 4.15437 6.38354 4.17415L5.20809 4.98793C5.13773 5.02843 5.06737 5.04821 4.99711 5.04821C4.86647 5.04821 4.77106 4.99358 4.71078 4.88244C4.67056 4.80238 4.6505 4.7421 4.6505 4.7016C4.6505 4.57162 4.72585 4.46613 4.87655 4.38513L6.17256 3.78233C6.2027 3.77291 6.21777 3.75784 6.21777 3.73712C6.21777 3.71734 6.2027 3.70227 6.17256 3.69191L4.87655 3.07404C4.73583 3.01377 4.66557 2.90828 4.66557 2.75758C4.66557 2.6973 4.68064 2.63702 4.71078 2.57674C4.77106 2.46654 4.86647 2.41097 4.99711 2.41097C5.06737 2.41097 5.13773 2.43169 5.20809 2.47125L6.38354 3.28502C6.40361 3.30575 6.42367 3.31046 6.44382 3.30009C6.46389 3.29068 6.46888 3.26995 6.45889 3.23981L6.3534 1.83831C6.34333 1.72811 6.37347 1.63769 6.44382 1.56705C6.51409 1.49735 6.59952 1.46156 6.70001 1.46156C6.80042 1.46156 6.88085 1.49735 6.94113 1.56705C7.00141 1.63769 7.02647 1.72811 7.01648 1.83831L6.91099 3.23981C6.90091 3.26995 6.90591 3.29068 6.92606 3.30009C6.94612 3.31046 6.97127 3.30575 7.00141 3.28502L8.1618 2.48632C8.23206 2.4364 8.30242 2.41097 8.37278 2.41097C8.5134 2.41097 8.6139 2.47125 8.67418 2.59181C8.70432 2.65209 8.71939 2.71237 8.71939 2.77265C8.71939 2.91393 8.64404 3.01377 8.49334 3.07404L7.21239 3.69191C7.18225 3.70227 7.16718 3.71734 7.16718 3.73712C7.16718 3.75784 7.18225 3.77291 7.21239 3.78233L8.49334 4.38513C8.64404 4.45577 8.71939 4.56597 8.71939 4.71667C8.71939 4.76753 8.70432 4.82216 8.67418 4.88244C8.6139 4.99358 8.5134 5.04821 8.37278 5.04821C8.30242 5.04821 8.23206 5.02843 8.1618 4.98793L7.00141 4.17415C6.97127 4.15437 6.94612 4.15437 6.92606 4.17415C6.90591 4.18451 6.90091 4.20429 6.91099 4.23443L7.01648 5.63594C7.02647 5.74708 6.99633 5.8375 6.92606 5.9072C6.8557 5.97784 6.77028 6.01269 6.66987 6.01269ZM19.1938 6.01269C19.0933 6.01269 19.013 5.97784 18.9527 5.9072C18.8924 5.8375 18.8673 5.74708 18.8774 5.63594L18.9829 4.23443C18.9928 4.20429 18.9879 4.18451 18.9678 4.17415C18.9476 4.15437 18.9276 4.15437 18.9075 4.17415L17.7321 4.98793C17.6617 5.02843 17.5913 5.04821 17.5211 5.04821C17.3904 5.04821 17.295 4.99358 17.2347 4.88244C17.1945 4.80238 17.1745 4.7421 17.1745 4.7016C17.1745 4.57162 17.2498 4.46613 17.4005 4.38513L18.6965 3.78233C18.7267 3.77291 18.7417 3.75784 18.7417 3.73712C18.7417 3.71734 18.7267 3.70227 18.6965 3.69191L17.4005 3.07404C17.2598 3.01377 17.1895 2.90828 17.1895 2.75758C17.1895 2.6973 17.2046 2.63702 17.2347 2.57674C17.295 2.46654 17.3904 2.41097 17.5211 2.41097C17.5913 2.41097 17.6617 2.43169 17.7321 2.47125L18.9075 3.28502C18.9276 3.30575 18.9476 3.31046 18.9678 3.30009C18.9879 3.29068 18.9928 3.26995 18.9829 3.23981L18.8774 1.83831C18.8673 1.72811 18.8974 1.63769 18.9678 1.56705C19.0381 1.49735 19.1235 1.46156 19.224 1.46156C19.3244 1.46156 19.4048 1.49735 19.4651 1.56705C19.5254 1.63769 19.5504 1.72811 19.5404 1.83831L19.435 3.23981C19.4249 3.26995 19.4299 3.29068 19.45 3.30009C19.4701 3.31046 19.4952 3.30575 19.5254 3.28502L20.6858 2.48632C20.756 2.4364 20.8264 2.41097 20.8967 2.41097C21.0374 2.41097 21.1379 2.47125 21.1981 2.59181C21.2283 2.65209 21.2434 2.71237 21.2434 2.77265C21.2434 2.91393 21.168 3.01377 21.0173 3.07404L19.7364 3.69191C19.7062 3.70227 19.6911 3.71734 19.6911 3.73712C19.6911 3.75784 19.7062 3.77291 19.7364 3.78233L21.0173 4.38513C21.168 4.45577 21.2434 4.56597 21.2434 4.71667C21.2434 4.76753 21.2283 4.82216 21.1981 4.88244C21.1379 4.99358 21.0374 5.04821 20.8967 5.04821C20.8264 5.04821 20.756 5.02843 20.6858 4.98793L19.5254 4.17415C19.4952 4.15437 19.4701 4.15437 19.45 4.17415C19.4299 4.18451 19.4249 4.20429 19.435 4.23443L19.5404 5.63594C19.5504 5.74708 19.5203 5.8375 19.45 5.9072C19.3797 5.97784 19.2942 6.01269 19.1938 6.01269ZM23.6032 5.9072C23.6635 5.97784 23.7438 6.01269 23.8443 6.01269C23.9447 6.01269 24.0302 5.97784 24.1005 5.9072C24.1708 5.8375 24.2009 5.74708 24.1909 5.63594L24.0855 4.23443C24.0754 4.20429 24.0804 4.18451 24.1005 4.17415C24.1206 4.15437 24.1457 4.15437 24.1759 4.17415L25.3363 4.98793C25.4065 5.02843 25.4769 5.04821 25.5472 5.04821C25.6879 5.04821 25.7884 4.99358 25.8486 4.88244C25.8788 4.82216 25.8939 4.76753 25.8939 4.71667C25.8939 4.56597 25.8185 4.45577 25.6678 4.38513L24.3869 3.78233C24.3567 3.77291 24.3416 3.75784 24.3416 3.73712C24.3416 3.71734 24.3567 3.70227 24.3869 3.69191L25.6678 3.07404C25.8185 3.01377 25.8939 2.91393 25.8939 2.77265C25.8939 2.71237 25.8788 2.65209 25.8486 2.59181C25.7884 2.47125 25.6879 2.41097 25.5472 2.41097C25.4769 2.41097 25.4065 2.4364 25.3363 2.48632L24.1759 3.28502C24.1457 3.30575 24.1206 3.31046 24.1005 3.30009C24.0804 3.29068 24.0754 3.26995 24.0855 3.23981L24.1909 1.83831C24.2009 1.72811 24.1759 1.63769 24.1156 1.56705C24.0553 1.49735 23.9749 1.46156 23.8745 1.46156C23.774 1.46156 23.6886 1.49735 23.6183 1.56705C23.5479 1.63769 23.5178 1.72811 23.5279 1.83831L23.6334 3.23981C23.6433 3.26995 23.6383 3.29068 23.6183 3.30009C23.5981 3.31046 23.5781 3.30575 23.558 3.28502L22.3825 2.47125C22.3122 2.43169 22.2418 2.41097 22.1716 2.41097C22.0409 2.41097 21.9455 2.46654 21.8852 2.57674C21.8551 2.63702 21.84 2.6973 21.84 2.75758C21.84 2.90828 21.9103 3.01377 22.051 3.07404L23.347 3.69191C23.3772 3.70227 23.3922 3.71734 23.3922 3.73712C23.3922 3.75784 23.3772 3.77291 23.347 3.78233L22.051 4.38513C21.9003 4.46613 21.825 4.57162 21.825 4.7016C21.825 4.7421 21.845 4.80238 21.8852 4.88244C21.9455 4.99358 22.0409 5.04821 22.1716 5.04821C22.2418 5.04821 22.3122 5.02843 22.3825 4.98793L23.558 4.17415C23.5781 4.15437 23.5981 4.15437 23.6183 4.17415C23.6383 4.18451 23.6433 4.20429 23.6334 4.23443L23.5279 5.63594C23.5178 5.74708 23.5429 5.8375 23.6032 5.9072Z" fill="white"/>
</svg>
