<svg width="23" height="5" viewBox="0 0 23 5" fill="none" xmlns="http://www.w3.org/2000/svg">
<path fill-rule="evenodd" clip-rule="evenodd" d="M2.14913 4.84357C2.04188 4.84357 1.95667 4.80648 1.89252 4.7313C1.82837 4.65712 1.8013 4.56089 1.81233 4.44261L1.9246 2.95105C1.93462 2.91897 1.92961 2.89792 1.90856 2.88689C1.88651 2.86584 1.86546 2.86584 1.84441 2.88689L0.593417 3.75296C0.518238 3.79607 0.443058 3.81712 0.368881 3.81712C0.229548 3.81712 0.128306 3.75898 0.0641532 3.6407C0.0210503 3.55549 0 3.49134 0 3.44824C0 3.30991 0.0801915 3.19764 0.240575 3.11143L1.61987 2.4699C1.65195 2.45987 1.66798 2.44384 1.66798 2.42178C1.66798 2.40073 1.65195 2.3847 1.61987 2.37367L0.240575 1.7161C0.0902155 1.65195 0.0160383 1.53968 0.0160383 1.37929C0.0160383 1.31514 0.0320766 1.25099 0.0641532 1.18683C0.128306 1.06955 0.229548 1.01041 0.368881 1.01041C0.443058 1.01041 0.518238 1.03247 0.593417 1.07457L1.84441 1.94063C1.86546 1.96269 1.88651 1.9677 1.90856 1.95667C1.92961 1.94665 1.93462 1.9246 1.9246 1.89252L1.81233 0.400958C1.8013 0.283678 1.83338 0.187448 1.90856 0.112268C1.98274 0.038091 2.07395 0 2.18121 0C2.28746 0 2.37367 0.038091 2.43782 0.112268C2.50198 0.187448 2.52804 0.283678 2.51801 0.400958L2.40575 1.89252C2.39472 1.9246 2.39973 1.94665 2.42178 1.95667C2.44283 1.9677 2.4699 1.96269 2.50198 1.94063L3.73692 1.0906C3.8111 1.03748 3.88628 1.01041 3.96146 1.01041C4.11082 1.01041 4.21807 1.07457 4.28223 1.20287C4.3143 1.26703 4.33034 1.33118 4.33034 1.39533C4.33034 1.54569 4.25015 1.65195 4.08977 1.7161L2.72651 2.37367C2.69444 2.3847 2.6784 2.40073 2.6784 2.42178C2.6784 2.44384 2.69444 2.45987 2.72651 2.4699L4.08977 3.11143C4.25015 3.18661 4.33034 3.30389 4.33034 3.46427C4.33034 3.5184 4.3143 3.57654 4.28223 3.6407C4.21807 3.75898 4.11082 3.81712 3.96146 3.81712C3.88628 3.81712 3.8111 3.79607 3.73692 3.75296L2.50198 2.88689C2.4699 2.86584 2.44283 2.86584 2.42178 2.88689C2.39973 2.89792 2.39472 2.91897 2.40575 2.95105L2.51801 4.44261C2.52804 4.56089 2.49596 4.65712 2.42178 4.7313C2.3466 4.80648 2.25539 4.84357 2.14913 4.84357ZM11.4834 4.84357C11.3762 4.84357 11.291 4.80648 11.2268 4.7313C11.1627 4.65712 11.1356 4.56089 11.1466 4.44261L11.2589 2.95105C11.2699 2.91897 11.2639 2.89792 11.2429 2.88689C11.2218 2.86584 11.1997 2.86584 11.1787 2.88689L9.92771 3.75296C9.85253 3.79607 9.77835 3.81712 9.70317 3.81712C9.56384 3.81712 9.4626 3.75898 9.39845 3.6407C9.35534 3.55549 9.33429 3.49134 9.33429 3.44824C9.33429 3.30991 9.41449 3.19764 9.57487 3.11143L10.9542 2.4699C10.9862 2.45987 11.0023 2.44384 11.0023 2.42178C11.0023 2.40073 10.9862 2.3847 10.9542 2.37367L9.57487 1.7161C9.42551 1.65195 9.35033 1.53968 9.35033 1.37929C9.35033 1.31514 9.36637 1.25099 9.39845 1.18683C9.4626 1.06955 9.56384 1.01041 9.70317 1.01041C9.77835 1.01041 9.85253 1.03247 9.92771 1.07457L11.1787 1.94063C11.1997 1.96269 11.2218 1.9677 11.2429 1.95667C11.2639 1.94665 11.2699 1.9246 11.2589 1.89252L11.1466 0.400958C11.1356 0.283678 11.1677 0.187448 11.2429 0.112268C11.318 0.038091 11.4082 0 11.5155 0C11.6228 0 11.708 0.038091 11.7721 0.112268C11.8363 0.187448 11.8633 0.283678 11.8523 0.400958L11.74 1.89252C11.729 1.9246 11.735 1.94665 11.7561 1.95667C11.7771 1.9677 11.8042 1.96269 11.8363 1.94063L13.0712 1.0906C13.1464 1.03748 13.2206 1.01041 13.2958 1.01041C13.4451 1.01041 13.5524 1.07457 13.6165 1.20287C13.6486 1.26703 13.6646 1.33118 13.6646 1.39533C13.6646 1.54569 13.5844 1.65195 13.4241 1.7161L12.0608 2.37367C12.0287 2.3847 12.0127 2.40073 12.0127 2.42178C12.0127 2.44384 12.0287 2.45987 12.0608 2.4699L13.4241 3.11143C13.5844 3.18661 13.6646 3.30389 13.6646 3.46427C13.6646 3.5184 13.6486 3.57654 13.6165 3.6407C13.5524 3.75898 13.4451 3.81712 13.2958 3.81712C13.2206 3.81712 13.1464 3.79607 13.0712 3.75296L11.8363 2.88689C11.8042 2.86584 11.7771 2.86584 11.7561 2.88689C11.735 2.89792 11.729 2.91897 11.74 2.95105L11.8523 4.44261C11.8633 4.56089 11.8313 4.65712 11.7561 4.7313C11.6809 4.80648 11.5907 4.84357 11.4834 4.84357ZM20.5621 4.7313C20.6263 4.80648 20.7115 4.84357 20.8187 4.84357C20.925 4.84357 21.0162 4.80648 21.0914 4.7313C21.1656 4.65712 21.1976 4.56089 21.1876 4.44261L21.0753 2.95105C21.0643 2.91897 21.0693 2.89792 21.0914 2.88689C21.1124 2.86584 21.1395 2.86584 21.1716 2.88689L22.4065 3.75296C22.4807 3.79607 22.5559 3.81712 22.6311 3.81712C22.7804 3.81712 22.8877 3.75898 22.9518 3.6407C22.9839 3.57654 22.9999 3.5184 22.9999 3.46427C22.9999 3.30389 22.9197 3.18661 22.7594 3.11143L21.3961 2.4699C21.364 2.45987 21.348 2.44384 21.348 2.42178C21.348 2.40073 21.364 2.3847 21.3961 2.37367L22.7594 1.7161C22.9197 1.65195 22.9999 1.54569 22.9999 1.39533C22.9999 1.33118 22.9839 1.26703 22.9518 1.20287C22.8877 1.07457 22.7804 1.01041 22.6311 1.01041C22.5559 1.01041 22.4807 1.03748 22.4065 1.0906L21.1716 1.94063C21.1395 1.96269 21.1124 1.9677 21.0914 1.95667C21.0693 1.94665 21.0643 1.9246 21.0753 1.89252L21.1876 0.400958C21.1976 0.283678 21.1716 0.187448 21.1074 0.112268C21.0433 0.038091 20.9571 0 20.8508 0C20.7435 0 20.6523 0.038091 20.5781 0.112268C20.503 0.187448 20.4709 0.283678 20.4819 0.400958L20.5942 1.89252C20.6042 1.9246 20.5992 1.94665 20.5781 1.95667C20.5561 1.9677 20.535 1.96269 20.514 1.94063L19.263 1.07457C19.1878 1.03247 19.1126 1.01041 19.0385 1.01041C18.8991 1.01041 18.7979 1.06955 18.7337 1.18683C18.7017 1.25099 18.6856 1.31514 18.6856 1.37929C18.6856 1.53968 18.7598 1.65195 18.9102 1.7161L20.2895 2.37367C20.3215 2.3847 20.3376 2.40073 20.3376 2.42178C20.3376 2.44384 20.3215 2.45987 20.2895 2.4699L18.9102 3.11143C18.7498 3.19764 18.6696 3.30991 18.6696 3.44824C18.6696 3.49134 18.6906 3.55549 18.7337 3.6407C18.7979 3.75898 18.8991 3.81712 19.0385 3.81712C19.1126 3.81712 19.1878 3.79607 19.263 3.75296L20.514 2.88689C20.535 2.86584 20.5561 2.86584 20.5781 2.88689C20.5992 2.89792 20.6042 2.91897 20.5942 2.95105L20.4819 4.44261C20.4709 4.56089 20.498 4.65712 20.5621 4.7313Z" fill="white"/>
</svg>
