<svg width="207" height="11" viewBox="0 0 207 11" fill="none" xmlns="http://www.w3.org/2000/svg">
<path fill-rule="evenodd" clip-rule="evenodd" d="M4.17098 9.52162H5.53322V6.6848C5.53322 6.27753 5.71578 5.98261 6.2354 5.98261C6.75502 5.98261 6.93758 6.27753 6.93758 6.6848V10.2238C6.93758 10.7294 6.60054 10.926 6.2354 10.926H0.702185C0.337049 10.926 0 10.7294 0 10.2238C0 9.71824 0.337049 9.52162 0.702185 9.52162H2.76661V1.40437H0.702185C0.337049 1.40437 0 1.20776 0 0.702185C0 0.196612 0.337049 0 0.702185 0H4.17098V9.52162ZM12.519 6.16518V9.52162H17.35C17.7151 9.52162 18.0522 9.71824 18.0522 10.2238C18.0522 10.7294 17.7151 10.926 17.35 10.926H11.1146V6.34775C11.1146 5.29447 11.6482 4.76081 12.7015 4.76081H16.6478V1.40437H11.8168C11.4516 1.40437 11.1146 1.20776 11.1146 0.702185C11.1146 0.196612 11.4516 0 11.8168 0H16.4793C16.9427 0 17.2657 0.0702185 17.6168 0.393223C18.01 0.758359 18.0522 1.13754 18.0522 1.64311V4.52207C18.0522 5.02764 18.01 5.40682 17.6168 5.77196C17.2657 6.09496 16.9427 6.16518 16.4793 6.16518H12.519ZM27.7624 1.40437H22.9313C22.5662 1.40437 22.2292 1.20776 22.2292 0.702185C22.2292 0.196612 22.5662 0 22.9313 0H27.7624C28.5629 0 29.1667 0.603879 29.1667 1.40437V4.10076C29.1667 4.66251 29.0544 5.06977 28.619 5.463C29.0544 5.85622 29.1667 6.26349 29.1667 6.82524V9.52162C29.1667 10.3221 28.5629 10.926 27.7624 10.926H22.9313C22.5662 10.926 22.2292 10.7294 22.2292 10.2238C22.2292 9.71824 22.5662 9.52162 22.9313 9.52162H27.7624V7.19037C27.7624 6.40392 27.4534 6.16518 27.0602 6.16518H24.3076C23.9425 6.16518 23.6054 5.96857 23.6054 5.463C23.6054 4.95742 23.9425 4.76081 24.3076 4.76081H27.0602C27.4534 4.76081 27.7624 4.52207 27.7624 3.73562V1.40437ZM35.4503 5.95453H38.1748V1.8959C38.1748 1.54481 38.3433 1.19371 38.877 1.19371C39.4106 1.19371 39.5791 1.54481 39.5791 1.8959V5.95453C39.9443 5.95453 40.2813 6.15114 40.2813 6.65671C40.2813 7.16228 39.9443 7.3589 39.5791 7.3589V10.2238C39.5791 10.6732 39.3825 10.926 38.877 10.926C38.3714 10.926 38.1748 10.6732 38.1748 10.2238V7.3589H34.0459V0.702185C34.0459 0.351092 34.2145 0 34.7481 0C35.2818 0 35.4503 0.351092 35.4503 0.702185V5.95453ZM58.3676 1.40437V4.76081H60.9516C61.401 4.76081 61.7381 4.83103 62.0751 5.15404C62.4684 5.51917 62.5105 5.85622 62.5105 6.34775V9.3531C62.5105 9.78846 62.4684 10.0974 62.1734 10.4485C61.8224 10.8698 61.4572 10.926 60.9516 10.926H57.8339C57.4688 10.926 57.2581 10.8277 56.9071 10.6732L56.3734 10.4345C55.9942 10.2659 55.5729 10.1395 55.5729 9.64802C55.5729 9.28288 55.8819 8.94583 56.247 8.94583C56.4155 8.94583 56.5419 8.98796 56.6964 9.05818L57.1177 9.24075C57.3143 9.32501 57.6373 9.52162 57.862 9.52162H61.1061V6.16518H56.9632V0H61.8083C62.1734 0 62.5105 0.196612 62.5105 0.702185C62.5105 1.20776 62.1734 1.40437 61.8083 1.40437H58.3676ZM68.0919 1.40437V5.95453H72.7825C73.4846 5.95453 73.6251 6.24944 73.6251 6.89545V10.0412C73.6251 10.7013 73.3442 10.926 72.7122 10.926H67.6003C66.9403 10.926 66.6875 10.6873 66.6875 10.0412V0.702185C66.6875 0.37918 66.7998 0 67.2914 0H68.134C68.4991 0 68.794 0.337049 68.794 0.702185C68.794 1.1235 68.4991 1.40437 68.0919 1.40437ZM72.2207 7.3589H68.0919V9.52162H72.2207V7.3589ZM83.3353 1.40437H79.2064C79.2064 1.71333 78.9536 2.10655 78.5042 2.10655C78.0549 2.10655 77.8021 1.71333 77.8021 1.40437V0.702185C77.8021 0.393223 78.0549 0 78.5042 0H84.7397L84.7396 4.07267C84.7396 4.5642 84.7537 4.62038 84.3605 4.95742L82.3944 6.65671C82.0292 6.97972 82.0011 7.0078 82.0011 7.49933V10.2238C82.0011 10.6732 81.8045 10.926 81.2989 10.926C80.7934 10.926 80.5968 10.6732 80.5968 10.2238V6.83928C80.5968 6.37584 80.6108 6.33371 80.9619 6.02474L82.8999 4.35355C83.3634 3.94628 83.3353 3.96032 83.3353 3.3424V1.40437ZM91.7254 4.76081H93.0455V1.40437H91.7254V4.76081ZM91.0232 0H93.7477C94.2252 0 94.4499 0.337049 94.4499 0.702185V4.76081C94.8852 4.76081 95.2223 4.91529 95.4751 5.15404C95.7278 5.39278 95.8542 5.74387 95.8542 6.17923V9.52162C95.8542 10.3783 95.3206 10.926 94.4499 10.926H90.321C89.4503 10.926 88.9166 10.3783 88.9166 9.52162V6.17923C88.9166 5.74387 89.043 5.39278 89.2958 5.15404C89.5486 4.91529 89.8857 4.76081 90.321 4.76081V0.702185C90.321 0.337049 90.5457 0 91.0232 0ZM90.321 9.52162H94.4499V6.16518H90.321V9.52162ZM116.679 9.52162V4.99956H111.848C111.455 4.99956 111.146 4.66251 111.146 4.29737V0.702185C111.146 0.337049 111.455 0 111.848 0H117.381C117.774 0 118.083 0.337049 118.083 0.702185V10.2238C118.083 10.603 117.803 10.926 117.381 10.926H116.679C116.258 10.926 115.977 10.603 115.977 10.2238C115.977 9.8025 116.272 9.52162 116.679 9.52162ZM112.55 3.59519H116.679V1.40437H112.55V3.59519ZM123.665 0H127.794C128.566 0 129.198 0.631966 129.198 1.40437V9.52162C129.198 10.3081 128.594 10.926 127.794 10.926H123.665C122.864 10.926 122.26 10.3081 122.26 9.52162V1.40437C122.26 0.631966 122.892 0 123.665 0ZM123.665 9.52162H127.794V1.40437H123.665V9.52162ZM137.546 9.52162H138.908V6.6848C138.908 6.27753 139.091 5.98261 139.61 5.98261C140.13 5.98261 140.313 6.27753 140.313 6.6848V10.2238C140.313 10.7294 139.976 10.926 139.61 10.926H134.077C133.712 10.926 133.375 10.7294 133.375 10.2238C133.375 9.71824 133.712 9.52162 134.077 9.52162H136.142V1.40437H134.077C133.712 1.40437 133.375 1.20776 133.375 0.702185C133.375 0.196612 133.712 0 134.077 0H137.546V9.52162ZM145.894 6.16518V9.52162H150.725C151.09 9.52162 151.427 9.71824 151.427 10.2238C151.427 10.7294 151.09 10.926 150.725 10.926H144.49V6.34775C144.49 5.29447 145.023 4.76081 146.076 4.76081H150.023V1.40437H145.192C144.827 1.40437 144.49 1.20776 144.49 0.702185C144.49 0.196612 144.827 0 145.192 0H149.854C150.318 0 150.641 0.0702185 150.992 0.393223C151.385 0.758359 151.427 1.13754 151.427 1.64311V4.52207C151.427 5.02764 151.385 5.40682 150.992 5.77196C150.641 6.09496 150.318 6.16518 149.854 6.16518H145.894ZM172.252 1.40437H167.421C167.056 1.40437 166.719 1.20776 166.719 0.702185C166.719 0.196612 167.056 0 167.421 0H172.252C173.052 0 173.656 0.603879 173.656 1.40437V4.10076C173.656 4.66251 173.544 5.06977 173.109 5.463C173.544 5.85622 173.656 6.26349 173.656 6.82524V9.52162C173.656 10.3221 173.052 10.926 172.252 10.926H167.421C167.056 10.926 166.719 10.7294 166.719 10.2238C166.719 9.71824 167.056 9.52162 167.421 9.52162H172.252V7.19037C172.252 6.40392 171.943 6.16518 171.55 6.16518H168.797C168.432 6.16518 168.095 5.96857 168.095 5.463C168.095 4.95742 168.432 4.76081 168.797 4.76081H171.55C171.943 4.76081 172.252 4.52207 172.252 3.73562V1.40437ZM179.94 5.95453H182.664V1.8959C182.664 1.54481 182.833 1.19371 183.367 1.19371C183.9 1.19371 184.069 1.54481 184.069 1.8959V5.95453C184.434 5.95453 184.771 6.15114 184.771 6.65671C184.771 7.16228 184.434 7.3589 184.069 7.3589V10.2238C184.069 10.6732 183.872 10.926 183.367 10.926C182.861 10.926 182.664 10.6732 182.664 10.2238V7.3589H178.535V0.702185C178.535 0.351092 178.704 0 179.238 0C179.771 0 179.94 0.351092 179.94 0.702185V5.95453ZM191.743 1.40437V4.76081H194.327C194.776 4.76081 195.113 4.83103 195.45 5.15404C195.843 5.51917 195.885 5.85622 195.885 6.34775V9.3531C195.885 9.78846 195.843 10.0974 195.548 10.4485C195.197 10.8698 194.832 10.926 194.327 10.926H191.209C190.844 10.926 190.633 10.8277 190.282 10.6732L189.748 10.4345C189.369 10.2659 188.948 10.1395 188.948 9.64802C188.948 9.28288 189.257 8.94583 189.622 8.94583C189.79 8.94583 189.917 8.98796 190.071 9.05818L190.493 9.24075C190.689 9.32501 191.012 9.52162 191.237 9.52162H194.481V6.16518H190.338V0H195.183C195.548 0 195.885 0.196612 195.885 0.702185C195.885 1.20776 195.548 1.40437 195.183 1.40437H191.743ZM201.467 1.40437V5.95453H206.157C206.86 5.95453 207 6.24944 207 6.89545V10.0412C207 10.7013 206.719 10.926 206.087 10.926H200.975C200.315 10.926 200.062 10.6873 200.062 10.0412V0.702185C200.062 0.37918 200.175 0 200.666 0H201.509C201.874 0 202.169 0.337049 202.169 0.702185C202.169 1.1235 201.874 1.40437 201.467 1.40437ZM205.596 7.3589H201.467V9.52162H205.596V7.3589Z" fill="white"/>
</svg>
