<svg width="10" height="9" viewBox="0 0 10 9" fill="none" xmlns="http://www.w3.org/2000/svg">
<g clip-path="url(#clip0_111_4100)">
<path d="M3.79699 8.22593C3.49032 8.22593 3.19987 8.10898 3.01376 7.90735L0.494856 5.18764C0.416979 5.10365 0.360124 5.00794 0.327541 4.90598C0.294958 4.80402 0.287286 4.69781 0.304964 4.59343C0.322641 4.48904 0.365322 4.38853 0.430566 4.29764C0.49581 4.20674 0.582337 4.12724 0.685201 4.06369C0.788029 3.99987 0.905257 3.95327 1.03017 3.92654C1.15508 3.89982 1.28522 3.8935 1.41312 3.90795C1.54103 3.9224 1.66419 3.95733 1.77554 4.01075C1.88689 4.06416 1.98425 4.13501 2.06203 4.21924L3.71944 6.00741L7.88659 0.539185C8.02479 0.358638 8.24498 0.230255 8.49886 0.182196C8.75274 0.134137 9.01958 0.170327 9.24086 0.282825C9.70121 0.516717 9.84291 1.01215 9.55528 1.38891L4.63169 7.84686C4.54764 7.9576 4.43179 8.0499 4.29419 8.11575C4.1566 8.18161 4.00141 8.21903 3.84211 8.22478C3.8266 8.22593 3.8125 8.22593 3.79699 8.22593V8.22593Z" fill="white"/>
</g>
<defs>
<clipPath id="clip0_111_4100">
<rect width="9.92" height="8.32" fill="white" transform="scale(1.00806)"/>
</clipPath>
</defs>
</svg>
