<svg width="328" height="56" viewBox="0 0 328 56" fill="none" xmlns="http://www.w3.org/2000/svg">
<path fill-rule="evenodd" clip-rule="evenodd" d="M4.5 1C2.567 1 1 2.567 1 4.5V50.9954C1 52.9284 2.56701 54.4954 4.5 54.4954H323.5C325.433 54.4954 327 52.9284 327 50.9954V4.5C327 2.567 325.433 1 323.5 1H316V0H323.5C325.985 0 328 2.01472 328 4.5V50.9954C328 53.4807 325.985 55.4954 323.5 55.4954H4.5C2.01472 55.4954 0 53.4807 0 50.9954V4.5C0 2.01472 2.01472 0 4.5 0H13V1H4.5Z" fill="black" fill-opacity="0.12"/>
</svg>
