<svg width="52" height="52" viewBox="0 0 52 52" fill="none" xmlns="http://www.w3.org/2000/svg">
<circle cx="25.9352" cy="25.9352" r="25.9352" fill="#EEF7FE"/>
<mask id="mask0_111_3728" style="mask-type:alpha" maskUnits="userSpaceOnUse" x="0" y="2" width="51" height="50">
<path d="M50.5478 27.0805C50.5483 30.3528 49.9043 33.5931 48.6526 36.6165C47.4009 39.6398 45.566 42.387 43.2527 44.701C40.9393 47.015 38.1929 48.8506 35.1701 50.103C32.1474 51.3554 28.9076 52 25.6358 52C19.0277 52 12.6901 49.3745 8.01747 44.7012C3.3448 40.0279 0.719727 33.6896 0.719727 27.0805C0.719727 20.4715 3.3448 14.1332 8.01747 9.45985C12.6901 4.78656 19.0277 2.16113 25.6358 2.16113C28.9076 2.16113 32.1474 2.80572 35.1701 4.05809C38.1929 5.31046 40.9393 7.14607 43.2527 9.46011C45.566 11.7741 47.4009 14.5213 48.6526 17.5446C49.9043 20.5679 50.5483 23.8083 50.5478 27.0805V27.0805Z" fill="#F1F3F6"/>
</mask>
<g mask="url(#mask0_111_3728)">
<path d="M45.9049 55.24H6.37598C6.44791 54.5401 6.80432 52.1068 8.58311 48.9966C10.6954 45.2976 20.1125 45.8242 20.4297 45.2976C20.567 45.0687 20.6455 44.1366 20.6913 43.1587C20.7469 41.8897 20.7469 40.5422 20.7469 40.5422L26.1421 42.1317L31.5373 40.5422C31.5373 40.5422 31.5373 41.8799 31.5896 43.1587C31.6386 44.1398 31.7138 45.085 31.8544 45.3172C32.1814 45.8438 41.5855 45.3172 43.701 49.0162C45.4765 52.1068 45.8362 54.5401 45.9049 55.24Z" fill="#E1A387"/>
<path d="M45.9049 55.2398H6.37598C6.44791 54.5399 6.80432 52.1066 8.58311 48.9963C10.3619 45.8861 17.3789 45.7585 19.7005 45.4838C20.1223 45.4315 20.3872 45.3791 20.4362 45.2974C20.4362 45.2974 26.044 52.5972 31.861 45.2974C31.9133 45.3889 32.2468 45.4478 32.77 45.5067C35.242 45.7683 41.9615 45.9449 43.7076 48.9963C45.4765 52.1066 45.8362 54.5399 45.9049 55.2398Z" fill="#860018"/>
<path d="M32.7629 45.5067C28.1851 51.8744 22.7245 48.3847 19.6836 45.4838C20.1054 45.4315 20.3703 45.3791 20.4193 45.2974C20.4193 45.2974 26.0271 52.5972 31.8441 45.2974C31.9062 45.3889 32.2397 45.4478 32.7629 45.5067Z" fill="#6B1524"/>
<path d="M16.9083 29.5207C16.9083 29.5207 14.4069 25.2952 13.3737 28.9156C12.3404 32.5361 14.8385 34.263 16.4767 33.9196C18.1149 33.5762 16.9083 29.5207 16.9083 29.5207Z" fill="#E1A387"/>
<path d="M16.6181 30.2107C16.6181 30.2107 14.8949 27.5354 14.29 28.6147C13.9218 29.3777 13.7735 30.2282 13.8617 31.0709C13.8617 31.0709 14.205 29.5631 15.3265 30.4167C15.3265 30.4167 14.2475 32.8304 16.4481 32.1403C16.435 32.1501 17.3408 31.4175 16.6181 30.2107Z" fill="#CE8D75"/>
<path d="M34.8641 29.5207C34.8641 29.5207 37.3655 25.2952 38.3988 28.9156C39.4321 32.5361 36.9339 34.263 35.2957 33.9196C33.6575 33.5762 34.8641 29.5207 34.8641 29.5207Z" fill="#E1A387"/>
<path d="M34.8989 30.4917C34.8989 30.4917 36.6221 27.8164 37.2271 28.8957C37.5954 29.6587 37.7448 30.509 37.6587 31.3519C37.6587 31.3519 37.3121 29.8442 36.1905 30.6978C36.1905 30.6978 37.2696 33.1114 35.069 32.4213C35.069 32.4311 34.1665 31.6985 34.8989 30.4917Z" fill="#CE8D75"/>
<path d="M34.9283 36.4183C34.7387 39.5253 31.1974 41.8245 28.8824 42.8515C27.5561 43.4701 26.0675 43.651 24.6316 43.3682C15.8816 40.7943 16.1301 34.8648 16.5225 33.2001C16.9149 31.5354 16.3786 28.2943 17.4053 24.4482C17.5375 23.9505 17.7343 23.4722 17.9906 23.0255C19.5569 20.2913 22.8954 19.4116 22.8954 19.4116C28.6797 15.6734 32.7277 19.3462 34.0618 22.3551C34.1505 22.5515 34.2291 22.7524 34.2972 22.9568C35.3076 26.054 35.1245 32.932 34.9283 36.4183Z" fill="#F2C2AC"/>
<path fill-rule="evenodd" clip-rule="evenodd" d="M31.9793 16.8218C32.0022 16.8161 32.0251 16.8106 32.0481 16.8053C32.2472 16.7563 32.4493 16.7203 32.653 16.6973C32.8236 16.6991 32.994 16.7111 33.1631 16.7333C33.3429 16.7611 33.5201 16.8038 33.6928 16.8609C36.2106 17.7079 36.4101 21.6522 36.07 25.0863C36.0438 25.3283 36.0177 25.5703 35.9883 25.8058C35.8219 27.1253 35.5872 28.4352 35.2852 29.7304C35.2549 29.8659 35.2258 29.9851 35.2011 30.0865C35.1858 30.1492 35.1722 30.205 35.161 30.2537C35.125 30.4041 35.1021 30.4859 35.1021 30.4859L35.04 30.0738V30.0182C34.9059 28.988 34.3861 27.6569 33.7517 26.3029C33.0108 24.8049 32.2053 23.3402 31.3376 21.9129C29.8391 22.3998 27.5805 23.0626 24.6962 23.7022C24.1338 23.8265 23.5518 23.9508 22.9404 24.0718C22.1098 24.2375 21.2379 24.3988 20.3245 24.5558C16.6983 25.1674 15.047 24.1045 14.3244 22.7374C14.2665 22.6312 14.2141 22.522 14.1674 22.4104C13.4906 20.7751 13.9778 18.8553 13.9778 18.8553C14.1674 19.2576 14.5859 19.2968 15.1876 19.0842C15.299 19.0455 15.4081 19.0008 15.5146 18.9501C16.3229 18.5941 17.3876 17.906 18.6189 17.1104C20.6898 15.7722 23.232 14.1295 25.8178 13.2496C26.33 13.0693 26.8707 12.984 27.4135 12.9978C27.6705 13.0069 27.9259 13.043 28.1753 13.1057C28.986 13.3269 29.7202 13.7671 30.2975 14.3779C30.3857 14.4695 30.474 14.5611 30.559 14.6559C31.0831 15.2624 31.5302 15.9314 31.8899 16.6477C31.9202 16.7055 31.95 16.7636 31.9793 16.8218Z" fill="#A16929"/>
<path d="M16.9017 19.1523C16.7938 19.4794 16.4439 25.9093 16.7774 28.8266L19.8609 20.7386L16.9017 19.1523Z" fill="#A16929"/>
<path d="M30.5666 14.6434C29.772 15.5428 28.9644 16.4258 28.0815 17.2598C25.639 19.5819 22.8106 21.5965 19.5146 22.4927C17.8797 22.9309 15.9701 23.2056 14.3254 22.738C14.2675 22.6317 14.2151 22.5225 14.1685 22.4109C14.3091 22.4534 14.4497 22.4861 14.6033 22.5188C17.5462 23.1206 20.816 22.0511 23.3501 20.5565C26.0069 18.9159 28.3599 16.828 30.305 14.385C30.3933 14.457 30.4816 14.5485 30.5666 14.6434Z" fill="#C98643"/>
<path d="M28.1832 13.0928C26.6922 15.549 24.7336 17.7141 22.4643 19.1172C20.6201 20.2553 18.5405 20.6805 16.4642 19.9839C15.952 19.8249 15.5048 19.5049 15.189 19.0714C15.3003 19.0327 15.4095 18.9879 15.5159 18.9373C15.7091 19.1506 15.9439 19.322 16.2059 19.441C17.3033 19.9318 18.5319 20.0468 19.7013 19.768C21.6894 19.2872 23.4191 17.9561 24.8055 16.4975C25.8061 15.4306 26.6835 14.2545 27.4214 12.9915C27.6782 12.9984 27.9335 13.0324 28.1832 13.0928V13.0928Z" fill="#C98643"/>
<path d="M32.194 17.2364C30.7571 18.9182 29.1556 20.452 27.4135 21.8152C26.5499 22.5018 25.6422 23.131 24.6963 23.699C24.1339 23.8233 23.5519 23.9475 22.9404 24.0685C24.7476 23.2477 26.4157 22.1498 27.8844 20.8144C29.3362 19.5346 30.6783 18.1354 31.8965 16.6313C32.0011 16.8341 32.0992 17.0369 32.194 17.2364Z" fill="#C98643"/>
<path d="M20.3804 26.5542C19.3994 27.156 18.8141 28.631 19.3994 29.5827C19.4256 29.6318 19.5269 29.6121 19.5204 29.5565C19.474 29.1162 19.5276 28.6711 19.677 28.2543C19.8265 27.8375 20.068 27.4599 20.3836 27.1494C20.8053 26.765 21.3532 26.5486 21.9237 26.5411C22.5777 26.4986 22.8654 27.084 23.3788 27.2835C23.4834 27.326 23.6175 27.2574 23.5815 27.1494C23.1761 25.9262 21.3842 25.9459 20.3804 26.5542Z" fill="#390A0A"/>
<path d="M23.8429 29.3018C23.8429 30.888 22.8619 32.1766 21.6652 32.1766C20.4684 32.1766 19.4907 30.888 19.4907 29.3018C19.4907 27.7156 20.4717 26.427 21.6652 26.427C22.8587 26.427 23.8429 27.7156 23.8429 29.3018Z" fill="white"/>
<path d="M23.3825 29.3868C23.3825 30.5675 22.6402 31.5258 21.7247 31.5258C20.8091 31.5258 20.0669 30.5675 20.0669 29.3868C20.0669 28.2062 20.8091 27.2446 21.7247 27.2446C22.6402 27.2446 23.3825 28.2127 23.3825 29.3868Z" fill="#3D79CA"/>
<path d="M23.1173 29.4194C23.1173 30.4005 22.5091 31.2247 21.7603 31.2247C21.0115 31.2247 20.4033 30.4169 20.4033 29.4194C20.4033 28.4218 21.0115 27.614 21.7603 27.614C22.5091 27.614 23.1173 28.4251 23.1173 29.4194Z" fill="#390A0A"/>
<path d="M23.3817 27.866C23.3817 28.0622 22.9959 28.2192 22.5217 28.2192C22.0476 28.2192 21.665 28.0622 21.665 27.866C21.665 27.6698 22.0509 27.5095 22.5217 27.5095C22.9926 27.5095 23.3817 27.6665 23.3817 27.866Z" fill="white"/>
<path d="M31.4322 26.5542C32.4132 27.156 32.9985 28.631 32.4132 29.5827C32.387 29.6318 32.2856 29.6121 32.2922 29.5565C32.3386 29.1162 32.285 28.6711 32.1356 28.2543C31.9861 27.8375 31.7446 27.4599 31.4289 27.1494C31.0085 26.7652 30.4616 26.5488 29.8921 26.5411C29.2382 26.4986 28.9472 27.084 28.4338 27.2835C28.3292 27.326 28.1951 27.2574 28.2311 27.1494C28.6365 25.9262 30.4284 25.9459 31.4322 26.5542Z" fill="#390A0A"/>
<path d="M32.1653 29.3018C32.1653 30.888 31.1843 32.1766 29.9908 32.1766C28.7974 32.1766 27.8164 30.888 27.8164 29.3018C27.8164 27.7156 28.7974 26.427 29.9908 26.427C31.1843 26.427 32.1653 27.7156 32.1653 29.3018Z" fill="white"/>
<path d="M31.7038 29.3868C31.7038 30.5675 30.9615 31.5258 30.046 31.5258C29.1304 31.5258 28.3882 30.5773 28.3882 29.3868C28.3882 28.1963 29.1304 27.2446 30.0427 27.2446C30.955 27.2446 31.7038 28.2127 31.7038 29.3868Z" fill="#3D79CA"/>
<path d="M31.4428 29.4194C31.4428 30.4005 30.8346 31.2247 30.0826 31.2247C29.3305 31.2247 28.7256 30.4169 28.7256 29.4194C28.7256 28.4218 29.3338 27.614 30.0826 27.614C30.8314 27.614 31.4428 28.4251 31.4428 29.4194Z" fill="#390A0A"/>
<path d="M31.7036 27.866C31.7036 28.0622 31.321 28.2192 30.8469 28.2192C30.3728 28.2192 29.9902 28.0622 29.9902 27.866C29.9902 27.6698 30.3728 27.5095 30.8469 27.5095C31.321 27.5095 31.7036 27.6665 31.7036 27.866Z" fill="white"/>
<path d="M25.8457 27.9147C25.8457 27.9147 25.1917 27.2606 25.074 29.5892C24.9563 31.9178 25.074 34.3511 25.074 34.3511C25.074 34.3511 23.5307 33.4485 24.044 34.737C24.322 35.4304 24.9759 35.7869 25.679 35.97C25.9343 36.0439 26.2055 36.0431 26.4604 35.9677C26.7154 35.8924 26.9434 35.7457 27.1177 35.5449C27.3008 35.365 28.2556 34.3969 27.9548 34.096C27.8109 33.9488 26.9738 34.2955 26.7613 34.3511C26.7547 34.3511 27.0032 27.4012 25.8457 27.9147Z" fill="#E1A387"/>
<path d="M29.696 37.3442C29.696 37.3442 26.6649 42.5411 22.4795 37.5405C22.4795 37.5405 24.9188 36.7163 25.8114 37.4489L26.1384 37.8184C26.1384 37.8184 27.0801 36.6574 29.696 37.3442Z" fill="#CE8D75"/>
<path d="M29.696 37.344C29.696 37.344 26.6649 42.5409 22.4795 37.5402C22.5024 37.5402 26.5929 39.4175 29.696 37.344Z" fill="#E1A387"/>
<path d="M24.2495 25.3691C24.2495 25.9185 22.8481 25.6088 21.1352 25.6088C19.4224 25.6088 18.021 25.9185 18.021 25.3691C18.021 24.8197 19.4193 23.6191 21.1352 23.6191C22.8512 23.6191 24.2495 24.8197 24.2495 25.3691Z" fill="#343434"/>
<path d="M33.2456 25.3691C33.2456 25.9185 31.8473 25.6088 30.1313 25.6088C28.4154 25.6088 27.0171 25.9185 27.0171 25.3691C27.0171 24.8197 28.4154 23.6191 30.1313 23.6191C31.8473 23.6191 33.2456 24.8197 33.2456 25.3691Z" fill="#343434"/>
</g>
</svg>
