<svg width="24" height="18" viewBox="0 0 24 18" fill="none" xmlns="http://www.w3.org/2000/svg">
<path d="M12 10.3884C11.6044 10.3884 11.2178 10.4755 10.8889 10.6385C10.56 10.8016 10.3036 11.0334 10.1522 11.3046C10.0009 11.5757 9.96126 11.8741 10.0384 12.162C10.1156 12.4499 10.3061 12.7143 10.5858 12.9219C10.8655 13.1294 11.2219 13.2708 11.6098 13.328C11.9978 13.3853 12.3999 13.3559 12.7654 13.2436C13.1308 13.1313 13.4432 12.941 13.6629 12.697C13.8827 12.4529 14 12.166 14 11.8725C14 11.4789 13.7893 11.1014 13.4142 10.8231C13.0391 10.5448 12.5304 10.3884 12 10.3884Z" fill="black"/>
<path d="M13.1111 7.17016C12.7822 7.33323 12.3956 7.42027 12 7.42027C11.4696 7.42027 10.9609 7.26391 10.5858 6.9856C10.2107 6.70728 10 6.32981 10 5.93621C10 5.64269 10.1173 5.35576 10.3371 5.11171C10.5568 4.86766 10.8692 4.67744 11.2346 4.56512C11.6001 4.45279 12.0022 4.4234 12.3902 4.48066C12.7781 4.53793 13.1345 4.67927 13.4142 4.88682C13.6939 5.09437 13.8844 5.3588 13.9616 5.64668C14.0387 5.93456 13.9991 6.23296 13.8478 6.50413C13.6964 6.77531 13.44 7.00709 13.1111 7.17016Z" fill="black"/>
</svg>
