<svg width="18" height="18" viewBox="0 0 18 18" fill="none" xmlns="http://www.w3.org/2000/svg">
<path d="M17.9904 9.16814C17.9904 8.43069 17.9292 7.89254 17.7967 7.33447H9.1792V10.663H14.2375C14.1355 11.4901 13.5848 12.7358 12.361 13.5729L12.3439 13.6843L15.0685 15.747L15.2573 15.7654C16.991 14.2008 17.9904 11.8987 17.9904 9.16814" fill="#4285F4"/>
<path d="M9.17929 17.9382C11.6574 17.9382 13.7378 17.1409 15.2574 15.7657L12.3611 13.5732C11.586 14.1014 10.5458 14.4701 9.17929 14.4701C6.75215 14.4701 4.69215 12.9055 3.95782 10.7429L3.85018 10.7519L1.01703 12.8945L0.97998 12.9952C2.48929 15.9251 5.58952 17.9382 9.17929 17.9382Z" fill="#34A853"/>
<path d="M3.95783 10.7431C3.76406 10.185 3.65193 9.58704 3.65193 8.9692C3.65193 8.35129 3.76407 7.75338 3.94763 7.19531L3.9425 7.07645L1.07383 4.89941L0.979977 4.94304C0.357916 6.15886 0.000976562 7.52419 0.000976562 8.9692C0.000976562 10.4142 0.357916 11.7795 0.979977 12.9953L3.95783 10.7431Z" fill="#FBBC05"/>
<path d="M9.17937 3.46802C10.9028 3.46802 12.0654 4.19551 12.7283 4.80346L15.3187 2.33196C13.7278 0.886947 11.6575 0 9.17937 0C5.58957 0 2.4893 2.01305 0.97998 4.94292L3.94765 7.19519C4.69219 5.03265 6.75221 3.46802 9.17937 3.46802" fill="#EB4335"/>
</svg>
