<svg width="22" height="5" viewBox="0 0 22 5" fill="none" xmlns="http://www.w3.org/2000/svg">
<path fill-rule="evenodd" clip-rule="evenodd" d="M2.05575 4.63312C1.95316 4.63312 1.87166 4.59764 1.81029 4.52573C1.74892 4.45477 1.72304 4.36272 1.73358 4.24958L1.84097 2.82283C1.85056 2.79214 1.84577 2.77201 1.82563 2.76146C1.80454 2.74132 1.7844 2.74132 1.76427 2.76146L0.567633 3.5899C0.49572 3.63113 0.423807 3.65126 0.352853 3.65126C0.219574 3.65126 0.122732 3.59565 0.0613658 3.48251C0.0201356 3.40101 0 3.33964 0 3.29841C0 3.16609 0.0767072 3.0587 0.230122 2.97624L1.54949 2.36258C1.58017 2.35299 1.59551 2.33765 1.59551 2.31656C1.59551 2.29642 1.58017 2.28108 1.54949 2.27053L0.230122 1.64153C0.0862956 1.58017 0.0153414 1.47278 0.0153414 1.31936C0.0153414 1.258 0.0306829 1.19663 0.0613658 1.13527C0.122732 1.02308 0.219574 0.966511 0.352853 0.966511C0.423807 0.966511 0.49572 0.987605 0.567633 1.02788L1.76427 1.85631C1.7844 1.87741 1.80454 1.8822 1.82563 1.87166C1.84577 1.86207 1.85056 1.84097 1.84097 1.81029L1.73358 0.383536C1.72304 0.271352 1.75372 0.179303 1.82563 0.10739C1.89659 0.0364359 1.98384 0 2.08644 0C2.18807 0 2.27053 0.0364359 2.3319 0.10739C2.39327 0.179303 2.4182 0.271352 2.40861 0.383536L2.30122 1.81029C2.29067 1.84097 2.29546 1.86207 2.31656 1.87166C2.33669 1.8822 2.36258 1.87741 2.39327 1.85631L3.57456 1.04322C3.64551 0.9924 3.71742 0.966511 3.78934 0.966511C3.9322 0.966511 4.0348 1.02788 4.09617 1.15061C4.12685 1.21197 4.14219 1.27334 4.14219 1.33471C4.14219 1.47853 4.06548 1.58017 3.91207 1.64153L2.60805 2.27053C2.57736 2.28108 2.56202 2.29642 2.56202 2.31656C2.56202 2.33765 2.57736 2.35299 2.60805 2.36258L3.91207 2.97624C4.06548 3.04815 4.14219 3.16034 4.14219 3.31375C4.14219 3.36553 4.12685 3.42114 4.09617 3.48251C4.0348 3.59565 3.9322 3.65126 3.78934 3.65126C3.71742 3.65126 3.64551 3.63113 3.57456 3.5899L2.39327 2.76146C2.36258 2.74132 2.33669 2.74132 2.31656 2.76146C2.29546 2.77201 2.29067 2.79214 2.30122 2.82283L2.40861 4.24958C2.4182 4.36272 2.38751 4.45477 2.31656 4.52573C2.24464 4.59764 2.15739 4.63312 2.05575 4.63312ZM10.9836 4.63327C10.881 4.63327 10.7995 4.5978 10.7381 4.52588C10.6768 4.45493 10.6509 4.36288 10.6614 4.24974L10.7688 2.82298C10.7794 2.7923 10.7736 2.77217 10.7535 2.76162C10.7333 2.74148 10.7122 2.74148 10.6921 2.76162L9.49547 3.59006C9.42356 3.63129 9.3526 3.65142 9.28069 3.65142C9.14741 3.65142 9.05057 3.59581 8.9892 3.48267C8.94797 3.40116 8.92783 3.3398 8.92783 3.29857C8.92783 3.16625 9.00454 3.05886 9.15796 2.9764L10.4773 2.36274C10.508 2.35315 10.5233 2.33781 10.5233 2.31672C10.5233 2.29658 10.508 2.28124 10.4773 2.27069L9.15796 1.64169C9.01509 1.58033 8.94318 1.47294 8.94318 1.31952C8.94318 1.25816 8.95852 1.19679 8.9892 1.13543C9.05057 1.02324 9.14741 0.96667 9.28069 0.96667C9.3526 0.96667 9.42356 0.987764 9.49547 1.02804L10.6921 1.85647C10.7122 1.87757 10.7333 1.88236 10.7535 1.87181C10.7736 1.86223 10.7794 1.84113 10.7688 1.81045L10.6614 0.383695C10.6509 0.271511 10.6816 0.179462 10.7535 0.107549C10.8254 0.0365946 10.9117 0.000158706 11.0143 0.000158706C11.1169 0.000158706 11.1984 0.0365946 11.2597 0.107549C11.3211 0.179462 11.347 0.271511 11.3364 0.383695L11.2291 1.81045C11.2185 1.84113 11.2243 1.86223 11.2444 1.87181C11.2645 1.88236 11.2904 1.87757 11.3211 1.85647L12.5024 1.04338C12.5743 0.992558 12.6453 0.96667 12.7172 0.96667C12.86 0.96667 12.9626 1.02804 13.024 1.15077C13.0547 1.21213 13.07 1.2735 13.07 1.33486C13.07 1.47869 12.9933 1.58033 12.8399 1.64169L11.5359 2.27069C11.5052 2.28124 11.4899 2.29658 11.4899 2.31672C11.4899 2.33781 11.5052 2.35315 11.5359 2.36274L12.8399 2.9764C12.9933 3.04831 13.07 3.1605 13.07 3.31391C13.07 3.36569 13.0547 3.4213 13.024 3.48267C12.9626 3.59581 12.86 3.65142 12.7172 3.65142C12.6453 3.65142 12.5743 3.63129 12.5024 3.59006L11.3211 2.76162C11.2904 2.74148 11.2645 2.74148 11.2444 2.76162C11.2243 2.77217 11.2185 2.7923 11.2291 2.82298L11.3364 4.24974C11.347 4.36288 11.3163 4.45493 11.2444 4.52588C11.1725 4.5978 11.0862 4.63327 10.9836 4.63327ZM19.6683 4.52588C19.7296 4.5978 19.8111 4.63327 19.9137 4.63327C20.0154 4.63327 20.1026 4.5978 20.1745 4.52588C20.2455 4.45493 20.2762 4.36288 20.2666 4.24974L20.1592 2.82298C20.1486 2.7923 20.1534 2.77217 20.1745 2.76162C20.1947 2.74148 20.2206 2.74148 20.2512 2.76162L21.4325 3.59006C21.5035 3.63129 21.5754 3.65142 21.6473 3.65142C21.7902 3.65142 21.8928 3.59581 21.9541 3.48267C21.9848 3.4213 22.0002 3.36569 22.0002 3.31391C22.0002 3.1605 21.9235 3.04831 21.77 2.9764L20.466 2.36274C20.4353 2.35315 20.42 2.33781 20.42 2.31672C20.42 2.29658 20.4353 2.28124 20.466 2.27069L21.77 1.64169C21.9235 1.58033 22.0002 1.47869 22.0002 1.33486C22.0002 1.2735 21.9848 1.21213 21.9541 1.15077C21.8928 1.02804 21.7902 0.96667 21.6473 0.96667C21.5754 0.96667 21.5035 0.992558 21.4325 1.04338L20.2512 1.85647C20.2206 1.87757 20.1947 1.88236 20.1745 1.87181C20.1534 1.86223 20.1486 1.84113 20.1592 1.81045L20.2666 0.383695C20.2762 0.271511 20.2512 0.179462 20.1899 0.107549C20.1285 0.0365946 20.046 0.000158706 19.9444 0.000158706C19.8418 0.000158706 19.7546 0.0365946 19.6836 0.107549C19.6117 0.179462 19.581 0.271511 19.5916 0.383695L19.6989 1.81045C19.7085 1.84113 19.7037 1.86223 19.6836 1.87181C19.6625 1.88236 19.6424 1.87757 19.6222 1.85647L18.4256 1.02804C18.3537 0.987764 18.2818 0.96667 18.2108 0.96667C18.0775 0.96667 17.9807 1.02324 17.9193 1.13543C17.8887 1.19679 17.8733 1.25816 17.8733 1.31952C17.8733 1.47294 17.9443 1.58033 18.0881 1.64169L19.4075 2.27069C19.4381 2.28124 19.4535 2.29658 19.4535 2.31672C19.4535 2.33781 19.4381 2.35315 19.4075 2.36274L18.0881 2.9764C17.9347 3.05886 17.858 3.16625 17.858 3.29857C17.858 3.3398 17.8781 3.40116 17.9193 3.48267C17.9807 3.59581 18.0775 3.65142 18.2108 3.65142C18.2818 3.65142 18.3537 3.63129 18.4256 3.59006L19.6222 2.76162C19.6424 2.74148 19.6625 2.74148 19.6836 2.76162C19.7037 2.77217 19.7085 2.7923 19.6989 2.82298L19.5916 4.24974C19.581 4.36288 19.6069 4.45493 19.6683 4.52588Z" fill="white"/>
</svg>
