<svg width="379" height="158" viewBox="0 0 379 158" fill="none" xmlns="http://www.w3.org/2000/svg">
<g filter="url(#filter0_d_111_1742)">
<path d="M54 60C54 54.4772 58.4772 50 64 50H315C320.523 50 325 54.4772 325 60V89.7087C325 95.2316 320.523 99.7087 315 99.7087H64C58.4771 99.7087 54 95.2316 54 89.7087V60Z" fill="white"/>
<path d="M64 50.5H315C320.247 50.5 324.5 54.7533 324.5 60V89.7087C324.5 94.9554 320.247 99.2087 315 99.2087H64C58.7533 99.2087 54.5 94.9554 54.5 89.7087V60C54.5 54.7533 58.7533 50.5 64 50.5Z" stroke="#F9FAFC"/>
</g>
<defs>
<filter id="filter0_d_111_1742" x="0" y="0" width="379" height="157.709" filterUnits="userSpaceOnUse" color-interpolation-filters="sRGB">
<feFlood flood-opacity="0" result="BackgroundImageFix"/>
<feColorMatrix in="SourceAlpha" type="matrix" values="0 0 0 0 0 0 0 0 0 0 0 0 0 0 0 0 0 0 127 0" result="hardAlpha"/>
<feOffset dy="4"/>
<feGaussianBlur stdDeviation="27"/>
<feColorMatrix type="matrix" values="0 0 0 0 0 0 0 0 0 0 0 0 0 0 0 0 0 0 0.08 0"/>
<feBlend mode="normal" in2="BackgroundImageFix" result="effect1_dropShadow_111_1742"/>
<feBlend mode="normal" in="SourceGraphic" in2="effect1_dropShadow_111_1742" result="shape"/>
</filter>
</defs>
</svg>
