<svg width="23" height="23" viewBox="0 0 23 23" fill="none" xmlns="http://www.w3.org/2000/svg">
<path d="M11.5001 13.4168C11.121 13.4168 10.7505 13.5292 10.4353 13.7398C10.1201 13.9504 9.87442 14.2498 9.72935 14.6C9.58429 14.9502 9.54633 15.3356 9.62028 15.7074C9.69424 16.0792 9.87679 16.4207 10.1448 16.6888C10.4129 16.9568 10.7544 17.1393 11.1262 17.2133C11.498 17.2873 11.8834 17.2493 12.2336 17.1042C12.5838 16.9592 12.8832 16.7135 13.0938 16.3983C13.3044 16.0831 13.4168 15.7125 13.4168 15.3335C13.4168 14.8251 13.2149 14.3376 12.8554 13.9782C12.496 13.6187 12.0085 13.4168 11.5001 13.4168Z" fill="white"/>
<path d="M12.565 9.26045C12.2498 9.47106 11.8792 9.58347 11.5001 9.58347C10.9918 9.58347 10.5043 9.38153 10.1448 9.02209C9.78539 8.66264 9.58346 8.17513 9.58346 7.66679C9.58346 7.28771 9.69587 6.91714 9.90647 6.60195C10.1171 6.28675 10.4164 6.04109 10.7666 5.89602C11.1169 5.75095 11.5023 5.713 11.8741 5.78695C12.2458 5.86091 12.5874 6.04345 12.8554 6.3115C13.1235 6.57955 13.306 6.92107 13.38 7.29287C13.4539 7.66467 13.416 8.05005 13.2709 8.40027C13.1258 8.7505 12.8802 9.04984 12.565 9.26045Z" fill="white"/>
</svg>
