<svg width="23" height="5" viewBox="0 0 23 5" fill="none" xmlns="http://www.w3.org/2000/svg">
<path fill-rule="evenodd" clip-rule="evenodd" d="M2.14916 4.84362C2.0419 4.84362 1.95669 4.80653 1.89254 4.73135C1.82839 4.65717 1.80132 4.56094 1.81235 4.44266L1.92462 2.95108C1.93464 2.919 1.92963 2.89795 1.90858 2.88693C1.88653 2.86588 1.86548 2.86588 1.84442 2.88693L0.593424 3.753C0.518243 3.79611 0.443063 3.81716 0.368885 3.81716C0.229551 3.81716 0.128308 3.75902 0.0641539 3.64073C0.0210505 3.55553 0 3.49138 0 3.44827C0 3.30994 0.0801924 3.19767 0.240577 3.11146L1.61989 2.46993C1.65196 2.4599 1.668 2.44386 1.668 2.42181C1.668 2.40076 1.65196 2.38472 1.61989 2.37369L0.240577 1.71612C0.0902164 1.65196 0.0160385 1.53969 0.0160385 1.37931C0.0160385 1.31516 0.032077 1.251 0.0641539 1.18685C0.128308 1.06957 0.229551 1.01042 0.368885 1.01042C0.443063 1.01042 0.518243 1.03248 0.593424 1.07458L1.84442 1.94066C1.86548 1.96271 1.88653 1.96772 1.90858 1.95669C1.92963 1.94667 1.93464 1.92462 1.92462 1.89254L1.81235 0.400962C1.80132 0.283681 1.8334 0.18745 1.90858 0.112269C1.98276 0.0380914 2.07398 0 2.18123 0C2.28749 0 2.37369 0.0380914 2.43785 0.112269C2.502 0.18745 2.52806 0.283681 2.51804 0.400962L2.40577 1.89254C2.39475 1.92462 2.39976 1.94667 2.42181 1.95669C2.44286 1.96772 2.46993 1.96271 2.502 1.94066L3.73696 1.09062C3.81114 1.03749 3.88632 1.01042 3.9615 1.01042C4.11086 1.01042 4.21812 1.07458 4.28227 1.20289C4.31435 1.26704 4.33039 1.33119 4.33039 1.39535C4.33039 1.54571 4.2502 1.65196 4.08981 1.71612L2.72654 2.37369C2.69446 2.38472 2.67843 2.40076 2.67843 2.42181C2.67843 2.44386 2.69446 2.4599 2.72654 2.46993L4.08981 3.11146C4.2502 3.18664 4.33039 3.30393 4.33039 3.46431C4.33039 3.51844 4.31435 3.57658 4.28227 3.64073C4.21812 3.75902 4.11086 3.81716 3.9615 3.81716C3.88632 3.81716 3.81114 3.79611 3.73696 3.753L2.502 2.88693C2.46993 2.86588 2.44286 2.86588 2.42181 2.88693C2.39976 2.89795 2.39475 2.919 2.40577 2.95108L2.51804 4.44266C2.52806 4.56094 2.49599 4.65717 2.42181 4.73135C2.34663 4.80653 2.25541 4.84362 2.14916 4.84362ZM11.4835 4.84362C11.3763 4.84362 11.2911 4.80653 11.2269 4.73135C11.1628 4.65717 11.1357 4.56094 11.1467 4.44266L11.259 2.95108C11.27 2.919 11.264 2.89795 11.243 2.88693C11.2219 2.86588 11.1999 2.86588 11.1788 2.88693L9.92782 3.753C9.85264 3.79611 9.77846 3.81716 9.70328 3.81716C9.56394 3.81716 9.4627 3.75902 9.39855 3.64073C9.35544 3.55553 9.33439 3.49138 9.33439 3.44827C9.33439 3.30994 9.41459 3.19767 9.57497 3.11146L10.9543 2.46993C10.9864 2.4599 11.0024 2.44386 11.0024 2.42181C11.0024 2.40076 10.9864 2.38472 10.9543 2.37369L9.57497 1.71612C9.42561 1.65196 9.35043 1.53969 9.35043 1.37931C9.35043 1.31516 9.36647 1.251 9.39855 1.18685C9.4627 1.06957 9.56394 1.01042 9.70328 1.01042C9.77846 1.01042 9.85264 1.03248 9.92782 1.07458L11.1788 1.94066C11.1999 1.96271 11.2219 1.96772 11.243 1.95669C11.264 1.94667 11.27 1.92462 11.259 1.89254L11.1467 0.400962C11.1357 0.283681 11.1678 0.18745 11.243 0.112269C11.3182 0.0380914 11.4084 0 11.5156 0C11.6229 0 11.7081 0.0380914 11.7722 0.112269C11.8364 0.18745 11.8635 0.283681 11.8524 0.400962L11.7402 1.89254C11.7291 1.92462 11.7352 1.94667 11.7562 1.95669C11.7773 1.96772 11.8043 1.96271 11.8364 1.94066L13.0714 1.09062C13.1465 1.03749 13.2207 1.01042 13.2959 1.01042C13.4453 1.01042 13.5525 1.07458 13.6167 1.20289C13.6487 1.26704 13.6648 1.33119 13.6648 1.39535C13.6648 1.54571 13.5846 1.65196 13.4242 1.71612L12.0609 2.37369C12.0289 2.38472 12.0128 2.40076 12.0128 2.42181C12.0128 2.44386 12.0289 2.4599 12.0609 2.46993L13.4242 3.11146C13.5846 3.18664 13.6648 3.30393 13.6648 3.46431C13.6648 3.51844 13.6487 3.57658 13.6167 3.64073C13.5525 3.75902 13.4453 3.81716 13.2959 3.81716C13.2207 3.81716 13.1465 3.79611 13.0714 3.753L11.8364 2.88693C11.8043 2.86588 11.7773 2.86588 11.7562 2.88693C11.7352 2.89795 11.7291 2.919 11.7402 2.95108L11.8524 4.44266C11.8635 4.56094 11.8314 4.65717 11.7562 4.73135C11.681 4.80653 11.5908 4.84362 11.4835 4.84362ZM20.5623 4.73135C20.6265 4.80653 20.7117 4.84362 20.8189 4.84362C20.9252 4.84362 21.0164 4.80653 21.0916 4.73135C21.1658 4.65717 21.1979 4.56094 21.1878 4.44266L21.0756 2.95108C21.0645 2.919 21.0695 2.89795 21.0916 2.88693C21.1126 2.86588 21.1397 2.86588 21.1718 2.88693L22.4068 3.753C22.4809 3.79611 22.5561 3.81716 22.6313 3.81716C22.7806 3.81716 22.8879 3.75902 22.9521 3.64073C22.9841 3.57658 23.0002 3.51844 23.0002 3.46431C23.0002 3.30393 22.92 3.18664 22.7596 3.11146L21.3963 2.46993C21.3643 2.4599 21.3482 2.44386 21.3482 2.42181C21.3482 2.40076 21.3643 2.38472 21.3963 2.37369L22.7596 1.71612C22.92 1.65196 23.0002 1.54571 23.0002 1.39535C23.0002 1.33119 22.9841 1.26704 22.9521 1.20289C22.8879 1.07458 22.7806 1.01042 22.6313 1.01042C22.5561 1.01042 22.4809 1.03749 22.4068 1.09062L21.1718 1.94066C21.1397 1.96271 21.1126 1.96772 21.0916 1.95669C21.0695 1.94667 21.0645 1.92462 21.0756 1.89254L21.1878 0.400962C21.1979 0.283681 21.1718 0.18745 21.1076 0.112269C21.0435 0.0380914 20.9573 0 20.851 0C20.7438 0 20.6525 0.0380914 20.5784 0.112269C20.5032 0.18745 20.4711 0.283681 20.4821 0.400962L20.5944 1.89254C20.6044 1.92462 20.5994 1.94667 20.5784 1.95669C20.5563 1.96772 20.5353 1.96271 20.5142 1.94066L19.2632 1.07458C19.188 1.03248 19.1129 1.01042 19.0387 1.01042C18.8993 1.01042 18.7981 1.06957 18.7339 1.18685C18.7019 1.251 18.6858 1.31516 18.6858 1.37931C18.6858 1.53969 18.76 1.65196 18.9104 1.71612L20.2897 2.37369C20.3218 2.38472 20.3378 2.40076 20.3378 2.42181C20.3378 2.44386 20.3218 2.4599 20.2897 2.46993L18.9104 3.11146C18.75 3.19767 18.6698 3.30994 18.6698 3.44827C18.6698 3.49138 18.6908 3.55553 18.7339 3.64073C18.7981 3.75902 18.8993 3.81716 19.0387 3.81716C19.1129 3.81716 19.188 3.79611 19.2632 3.753L20.5142 2.88693C20.5353 2.86588 20.5563 2.86588 20.5784 2.88693C20.5994 2.89795 20.6044 2.919 20.5944 2.95108L20.4821 4.44266C20.4711 4.56094 20.4982 4.65717 20.5623 4.73135Z" fill="white"/>
</svg>
