<svg width="27" height="15" viewBox="0 0 27 15" fill="none" xmlns="http://www.w3.org/2000/svg">
<path fill-rule="evenodd" clip-rule="evenodd" d="M9.63563 14.4567C9.71941 14.551 9.8242 14.5981 9.94991 14.5981C10.0546 14.5981 10.1437 14.5726 10.217 14.5195C10.2903 14.4675 10.3637 14.3781 10.437 14.2524L17.2725 0.707155C17.3144 0.612872 17.3354 0.51859 17.3354 0.424307C17.3354 0.298597 17.2934 0.199404 17.2097 0.125746C17.1258 0.0422667 17.0315 3.60055e-05 16.9268 3.60055e-05C16.8115 3.60055e-05 16.712 0.0314635 16.6283 0.0943185C16.5549 0.147352 16.4815 0.241635 16.4083 0.377166L9.57278 13.9067C9.53084 13.9804 9.50992 14.0589 9.50992 14.1424C9.50992 14.2681 9.55176 14.3732 9.63563 14.4567ZM2.1057 6.26982C2.00091 6.26982 1.91713 6.23348 1.85428 6.15983C1.79142 6.08715 1.7652 5.99287 1.77571 5.87698L1.88571 4.4156C1.89612 4.38417 1.89091 4.36355 1.86999 4.35275C1.84898 4.33212 1.82806 4.33212 1.80714 4.35275L0.581466 5.20129C0.508103 5.24352 0.434739 5.26414 0.361474 5.26414C0.225255 5.26414 0.125768 5.20718 0.0629127 5.09129C0.0209767 5.00781 5.7767e-05 4.94496 5.7767e-05 4.90273C5.7767e-05 4.7672 0.0786265 4.6572 0.235764 4.57274L1.58715 3.94419C1.61857 3.93437 1.63429 3.91865 1.63429 3.89705C1.63429 3.87642 1.61857 3.86071 1.58715 3.84991L0.235764 3.20564C0.0890368 3.14279 0.0157715 3.03279 0.0157715 2.87565C0.0157715 2.8128 0.0314853 2.74994 0.0629127 2.68709C0.125768 2.57218 0.225255 2.51424 0.361474 2.51424C0.434739 2.51424 0.508103 2.53584 0.581466 2.57709L1.80714 3.42563C1.82806 3.44724 1.84898 3.45215 1.86999 3.44135C1.89091 3.43153 1.89612 3.40992 1.88571 3.37849L1.77571 1.91711C1.7652 1.80221 1.79663 1.70793 1.86999 1.63427C1.94326 1.56159 2.03234 1.52427 2.13713 1.52427C2.24182 1.52427 2.32569 1.56159 2.38855 1.63427C2.4514 1.70793 2.47753 1.80221 2.46712 1.91711L2.35712 3.37849C2.34661 3.40992 2.35182 3.43153 2.37283 3.44135C2.39375 3.45215 2.41997 3.44724 2.4514 3.42563L3.66136 2.59281C3.73463 2.54075 3.80799 2.51424 3.88135 2.51424C4.02798 2.51424 4.13277 2.57709 4.19563 2.7028C4.22706 2.76566 4.24277 2.82851 4.24277 2.89137C4.24277 3.03868 4.1642 3.14279 4.00706 3.20564L2.67139 3.84991C2.63997 3.86071 2.62425 3.87642 2.62425 3.89705C2.62425 3.91865 2.63997 3.93437 2.67139 3.94419L4.00706 4.57274C4.1642 4.6464 4.24277 4.7613 4.24277 4.91844C4.24277 4.97147 4.22706 5.02844 4.19563 5.09129C4.13277 5.20718 4.02798 5.26414 3.88135 5.26414C3.80799 5.26414 3.73463 5.24352 3.66136 5.20129L2.4514 4.35275C2.41997 4.33212 2.39375 4.33212 2.37283 4.35275C2.35182 4.36355 2.34661 4.38417 2.35712 4.4156L2.46712 5.87698C2.47753 5.99287 2.4461 6.08715 2.37283 6.15983C2.29947 6.23348 2.21039 6.26982 2.1057 6.26982ZM6.95486 6.26982C6.85007 6.26982 6.7663 6.23348 6.70344 6.15983C6.64059 6.08715 6.61437 5.99287 6.62487 5.87698L6.73487 4.4156C6.74528 4.38417 6.74008 4.36355 6.71916 4.35275C6.69814 4.33212 6.67722 4.33212 6.6563 4.35275L5.43063 5.20129C5.35727 5.24352 5.2839 5.26414 5.21064 5.26414C5.07442 5.26414 4.97493 5.20718 4.91208 5.09129C4.87014 5.00781 4.84922 4.94496 4.84922 4.90273C4.84922 4.7672 4.92779 4.6572 5.08493 4.57274L6.43631 3.94419C6.46774 3.93437 6.48345 3.91865 6.48345 3.89705C6.48345 3.87642 6.46774 3.86071 6.43631 3.84991L5.08493 3.20564C4.9382 3.14279 4.86494 3.03279 4.86494 2.87565C4.86494 2.8128 4.88065 2.74994 4.91208 2.68709C4.97493 2.57218 5.07442 2.51424 5.21064 2.51424C5.2839 2.51424 5.35727 2.53584 5.43063 2.57709L6.6563 3.42563C6.67722 3.44724 6.69814 3.45215 6.71916 3.44135C6.74008 3.43153 6.74528 3.40992 6.73487 3.37849L6.62487 1.91711C6.61437 1.80221 6.64579 1.70793 6.71916 1.63427C6.79242 1.56159 6.8815 1.52427 6.98629 1.52427C7.09098 1.52427 7.17486 1.56159 7.23771 1.63427C7.30057 1.70793 7.32669 1.80221 7.31628 1.91711L7.20628 3.37849C7.19577 3.40992 7.20098 3.43153 7.222 3.44135C7.24292 3.45215 7.26914 3.44724 7.30057 3.42563L8.51052 2.59281C8.58379 2.54075 8.65715 2.51424 8.73052 2.51424C8.87715 2.51424 8.98194 2.57709 9.04479 2.7028C9.07622 2.76566 9.09193 2.82851 9.09193 2.89137C9.09193 3.03868 9.01336 3.14279 8.85623 3.20564L7.52056 3.84991C7.48913 3.86071 7.47342 3.87642 7.47342 3.89705C7.47342 3.91865 7.48913 3.93437 7.52056 3.94419L8.85623 4.57274C9.01336 4.6464 9.09193 4.7613 9.09193 4.91844C9.09193 4.97147 9.07622 5.02844 9.04479 5.09129C8.98194 5.20718 8.87715 5.26414 8.73052 5.26414C8.65715 5.26414 8.58379 5.24352 8.51052 5.20129L7.30057 4.35275C7.26914 4.33212 7.24292 4.33212 7.222 4.35275C7.20098 4.36355 7.19577 4.38417 7.20628 4.4156L7.31628 5.87698C7.32669 5.99287 7.29526 6.08715 7.222 6.15983C7.14863 6.23348 7.05956 6.26982 6.95486 6.26982ZM20.0138 6.26982C19.9091 6.26982 19.8253 6.23348 19.7624 6.15983C19.6996 6.08715 19.6733 5.99287 19.6839 5.87698L19.7939 4.4156C19.8043 4.38417 19.7991 4.36355 19.7781 4.35275C19.7571 4.33212 19.7362 4.33212 19.7153 4.35275L18.4896 5.20129C18.4162 5.24352 18.3429 5.26414 18.2696 5.26414C18.1334 5.26414 18.0339 5.20718 17.9711 5.09129C17.9291 5.00781 17.9082 4.94496 17.9082 4.90273C17.9082 4.7672 17.9868 4.6572 18.1439 4.57274L19.4953 3.94419C19.5267 3.93437 19.5424 3.91865 19.5424 3.89705C19.5424 3.87642 19.5267 3.86071 19.4953 3.84991L18.1439 3.20564C17.9972 3.14279 17.9239 3.03279 17.9239 2.87565C17.9239 2.8128 17.9396 2.74994 17.9711 2.68709C18.0339 2.57218 18.1334 2.51424 18.2696 2.51424C18.3429 2.51424 18.4162 2.53584 18.4896 2.57709L19.7153 3.42563C19.7362 3.44724 19.7571 3.45215 19.7781 3.44135C19.7991 3.43153 19.8043 3.40992 19.7939 3.37849L19.6839 1.91711C19.6733 1.80221 19.7048 1.70793 19.7781 1.63427C19.8514 1.56159 19.9405 1.52427 20.0453 1.52427C20.15 1.52427 20.2338 1.56159 20.2967 1.63427C20.3595 1.70793 20.3857 1.80221 20.3753 1.91711L20.2653 3.37849C20.2548 3.40992 20.26 3.43153 20.281 3.44135C20.3019 3.45215 20.3281 3.44724 20.3595 3.42563L21.5695 2.59281C21.6428 2.54075 21.7161 2.51424 21.7895 2.51424C21.9361 2.51424 22.0409 2.57709 22.1038 2.7028C22.1352 2.76566 22.1509 2.82851 22.1509 2.89137C22.1509 3.03868 22.0723 3.14279 21.9152 3.20564L20.5795 3.84991C20.5481 3.86071 20.5324 3.87642 20.5324 3.89705C20.5324 3.91865 20.5481 3.93437 20.5795 3.94419L21.9152 4.57274C22.0723 4.6464 22.1509 4.7613 22.1509 4.91844C22.1509 4.97147 22.1352 5.02844 22.1038 5.09129C22.0409 5.20718 21.9361 5.26414 21.7895 5.26414C21.7161 5.26414 21.6428 5.24352 21.5695 5.20129L20.3595 4.35275C20.3281 4.33212 20.3019 4.33212 20.281 4.35275C20.26 4.36355 20.2548 4.38417 20.2653 4.4156L20.3753 5.87698C20.3857 5.99287 20.3542 6.08715 20.281 6.15983C20.2076 6.23348 20.1185 6.26982 20.0138 6.26982ZM24.6116 6.15983C24.6744 6.23348 24.7582 6.26982 24.863 6.26982C24.9677 6.26982 25.0568 6.23348 25.1301 6.15983C25.2034 6.08715 25.2348 5.99287 25.2244 5.87698L25.1144 4.4156C25.1039 4.38417 25.1091 4.36355 25.1301 4.35275C25.1511 4.33212 25.1773 4.33212 25.2087 4.35275L26.4187 5.20129C26.4919 5.24352 26.5653 5.26414 26.6387 5.26414C26.7853 5.26414 26.8901 5.20718 26.9529 5.09129C26.9844 5.02844 27.0001 4.97147 27.0001 4.91844C27.0001 4.7613 26.9215 4.6464 26.7644 4.57274L25.4287 3.94419C25.3973 3.93437 25.3816 3.91865 25.3816 3.89705C25.3816 3.87642 25.3973 3.86071 25.4287 3.84991L26.7644 3.20564C26.9215 3.14279 27.0001 3.03868 27.0001 2.89137C27.0001 2.82851 26.9844 2.76566 26.9529 2.7028C26.8901 2.57709 26.7853 2.51424 26.6387 2.51424C26.5653 2.51424 26.4919 2.54075 26.4187 2.59281L25.2087 3.42563C25.1773 3.44724 25.1511 3.45215 25.1301 3.44135C25.1091 3.43153 25.1039 3.40992 25.1144 3.37849L25.2244 1.91711C25.2348 1.80221 25.2087 1.70793 25.1459 1.63427C25.083 1.56159 24.9991 1.52427 24.8944 1.52427C24.7896 1.52427 24.7006 1.56159 24.6273 1.63427C24.5539 1.70793 24.5225 1.80221 24.533 1.91711L24.643 3.37849C24.6534 3.40992 24.6482 3.43153 24.6273 3.44135C24.6063 3.45215 24.5854 3.44724 24.5644 3.42563L23.3388 2.57709C23.2654 2.53584 23.192 2.51424 23.1188 2.51424C22.9826 2.51424 22.8831 2.57218 22.8202 2.68709C22.7888 2.74994 22.7731 2.8128 22.7731 2.87565C22.7731 3.03279 22.8463 3.14279 22.9931 3.20564L24.3445 3.84991C24.3759 3.86071 24.3916 3.87642 24.3916 3.89705C24.3916 3.91865 24.3759 3.93437 24.3445 3.94419L22.9931 4.57274C22.8359 4.6572 22.7574 4.7672 22.7574 4.90273C22.7574 4.94496 22.7783 5.00781 22.8202 5.09129C22.8831 5.20718 22.9826 5.26414 23.1188 5.26414C23.192 5.26414 23.2654 5.24352 23.3388 5.20129L24.5644 4.35275C24.5854 4.33212 24.6063 4.33212 24.6273 4.35275C24.6482 4.36355 24.6534 4.38417 24.643 4.4156L24.533 5.87698C24.5225 5.99287 24.5487 6.08715 24.6116 6.15983Z" fill="white"/>
</svg>
