<svg width="24" height="25" viewBox="0 0 24 25" fill="none" xmlns="http://www.w3.org/2000/svg">
<path d="M13.73 22C13.5542 22.3031 13.3018 22.5547 12.9982 22.7295C12.6946 22.9044 12.3504 22.9965 12 22.9965C11.6496 22.9965 11.3054 22.9044 11.0018 22.7295C10.6982 22.5547 10.4458 22.3031 10.27 22M22 18H2C2.79565 18 3.55871 17.6839 4.12132 17.1213C4.68393 16.5587 5 15.7956 5 15V10C5 8.14348 5.7375 6.36301 7.05025 5.05025C8.36301 3.7375 10.1435 3 12 3C13.8565 3 15.637 3.7375 16.9497 5.05025C18.2625 6.36301 19 8.14348 19 10V15C19 15.7956 19.3161 16.5587 19.8787 17.1213C20.4413 17.6839 21.2044 18 22 18V18Z" stroke="#781596" stroke-width="2" stroke-linecap="round" stroke-linejoin="round"/>
<circle cx="19" cy="4" r="4" fill="#FFB133"/>
</svg>
