<svg width="375" height="87" viewBox="0 0 375 87" fill="none" xmlns="http://www.w3.org/2000/svg">
<rect width="375" height="87" fill="white"/>
<path d="M328 44C329.657 44 331 42.6569 331 41C331 39.3431 329.657 38 328 38C326.343 38 325 39.3431 325 41C325 42.6569 326.343 44 328 44Z" stroke="#737373" stroke-width="2" stroke-linecap="round" stroke-linejoin="round"/>
<path d="M335.4 44C335.267 44.3016 335.227 44.6362 335.286 44.9606C335.345 45.285 335.499 45.5843 335.73 45.82L335.79 45.88C335.976 46.0657 336.123 46.2863 336.224 46.5291C336.325 46.7719 336.377 47.0322 336.377 47.295C336.377 47.5578 336.325 47.8181 336.224 48.0609C336.123 48.3037 335.976 48.5243 335.79 48.71C335.604 48.896 335.384 49.0435 335.141 49.1441C334.898 49.2448 334.638 49.2966 334.375 49.2966C334.112 49.2966 333.852 49.2448 333.609 49.1441C333.366 49.0435 333.146 48.896 332.96 48.71L332.9 48.65C332.664 48.4195 332.365 48.2648 332.041 48.206C331.716 48.1472 331.382 48.1869 331.08 48.32C330.784 48.4468 330.532 48.6572 330.354 48.9255C330.177 49.1938 330.081 49.5082 330.08 49.83V50C330.08 50.5304 329.869 51.0391 329.494 51.4142C329.119 51.7893 328.61 52 328.08 52C327.55 52 327.041 51.7893 326.666 51.4142C326.291 51.0391 326.08 50.5304 326.08 50V49.91C326.072 49.579 325.965 49.258 325.773 48.9887C325.58 48.7194 325.311 48.5143 325 48.4C324.698 48.2669 324.364 48.2272 324.039 48.286C323.715 48.3448 323.416 48.4995 323.18 48.73L323.12 48.79C322.934 48.976 322.714 49.1235 322.471 49.2241C322.228 49.3248 321.968 49.3766 321.705 49.3766C321.442 49.3766 321.182 49.3248 320.939 49.2241C320.696 49.1235 320.476 48.976 320.29 48.79C320.104 48.6043 319.957 48.3837 319.856 48.1409C319.755 47.8981 319.703 47.6378 319.703 47.375C319.703 47.1122 319.755 46.8519 319.856 46.6091C319.957 46.3663 320.104 46.1457 320.29 45.96L320.35 45.9C320.581 45.6643 320.735 45.365 320.794 45.0406C320.853 44.7162 320.813 44.3816 320.68 44.08C320.553 43.7842 320.343 43.532 320.074 43.3543C319.806 43.1766 319.492 43.0813 319.17 43.08H319C318.47 43.08 317.961 42.8693 317.586 42.4942C317.211 42.1191 317 41.6104 317 41.08C317 40.5496 317.211 40.0409 317.586 39.6658C317.961 39.2907 318.47 39.08 319 39.08H319.09C319.421 39.0723 319.742 38.9651 320.011 38.7725C320.281 38.5799 320.486 38.3107 320.6 38C320.733 37.6984 320.773 37.3638 320.714 37.0394C320.655 36.715 320.501 36.4157 320.27 36.18L320.21 36.12C320.024 35.9343 319.877 35.7137 319.776 35.4709C319.675 35.2281 319.623 34.9678 319.623 34.705C319.623 34.4422 319.675 34.1819 319.776 33.9391C319.877 33.6963 320.024 33.4757 320.21 33.29C320.396 33.104 320.616 32.9565 320.859 32.8559C321.102 32.7552 321.362 32.7034 321.625 32.7034C321.888 32.7034 322.148 32.7552 322.391 32.8559C322.634 32.9565 322.854 33.104 323.04 33.29L323.1 33.35C323.336 33.5805 323.635 33.7352 323.959 33.794C324.284 33.8528 324.618 33.8131 324.92 33.68H325C325.296 33.5532 325.548 33.3428 325.726 33.0745C325.903 32.8062 325.999 32.4918 326 32.17V32C326 31.4696 326.211 30.9609 326.586 30.5858C326.961 30.2107 327.47 30 328 30C328.53 30 329.039 30.2107 329.414 30.5858C329.789 30.9609 330 31.4696 330 32V32.09C330.001 32.4118 330.097 32.7262 330.274 32.9945C330.452 33.2628 330.704 33.4732 331 33.6C331.302 33.7331 331.636 33.7728 331.961 33.714C332.285 33.6552 332.584 33.5005 332.82 33.27L332.88 33.21C333.066 33.024 333.286 32.8765 333.529 32.7759C333.772 32.6752 334.032 32.6234 334.295 32.6234C334.558 32.6234 334.818 32.6752 335.061 32.7759C335.304 32.8765 335.524 33.024 335.71 33.21C335.896 33.3957 336.043 33.6163 336.144 33.8591C336.245 34.1019 336.297 34.3622 336.297 34.625C336.297 34.8878 336.245 35.1481 336.144 35.3909C336.043 35.6337 335.896 35.8543 335.71 36.04L335.65 36.1C335.419 36.3357 335.265 36.635 335.206 36.9594C335.147 37.2838 335.187 37.6184 335.32 37.92V38C335.447 38.2958 335.657 38.548 335.926 38.7257C336.194 38.9034 336.508 38.9987 336.83 39H337C337.53 39 338.039 39.2107 338.414 39.5858C338.789 39.9609 339 40.4696 339 41C339 41.5304 338.789 42.0391 338.414 42.4142C338.039 42.7893 337.53 43 337 43H336.91C336.588 43.0013 336.274 43.0966 336.006 43.2743C335.737 43.452 335.527 43.7042 335.4 44V44Z" stroke="#737373" stroke-width="2" stroke-linecap="round" stroke-linejoin="round"/>
<path d="M116 48V46C116 44.9391 115.579 43.9217 114.828 43.1716C114.078 42.4214 113.061 42 112 42H104C102.939 42 101.922 42.4214 101.172 43.1716C100.421 43.9217 100 44.9391 100 46V48" stroke="#781596" stroke-width="2" stroke-linecap="round" stroke-linejoin="round"/>
<path d="M108 38C110.209 38 112 36.2091 112 34C112 31.7909 110.209 30 108 30C105.791 30 104 31.7909 104 34C104 36.2091 105.791 38 108 38Z" stroke="#781596" stroke-width="2" stroke-linecap="round" stroke-linejoin="round"/>
<path d="M122 47.9999V45.9999C121.999 45.1136 121.704 44.2527 121.161 43.5522C120.618 42.8517 119.858 42.3515 119 42.1299" stroke="#781596" stroke-width="2" stroke-linecap="round" stroke-linejoin="round"/>
<path d="M115 30.1299C115.86 30.3502 116.623 30.8506 117.168 31.5522C117.712 32.2538 118.008 33.1167 118.008 34.0049C118.008 34.8931 117.712 35.756 117.168 36.4576C116.623 37.1592 115.86 37.6596 115 37.8799" stroke="#781596" stroke-width="2" stroke-linecap="round" stroke-linejoin="round"/>
<path d="M268 48V46C268 44.9391 267.579 43.9217 266.828 43.1716C266.078 42.4214 265.061 42 264 42H256C254.939 42 253.922 42.4214 253.172 43.1716C252.421 43.9217 252 44.9391 252 46V48" stroke="#737373" stroke-width="2" stroke-linecap="round" stroke-linejoin="round"/>
<path d="M260 38C262.209 38 264 36.2091 264 34C264 31.7909 262.209 30 260 30C257.791 30 256 31.7909 256 34C256 36.2091 257.791 38 260 38Z" stroke="#737373" stroke-width="2" stroke-linecap="round" stroke-linejoin="round"/>
<path d="M33 36L42 29L51 36V47C51 47.5304 50.7893 48.0391 50.4142 48.4142C50.0391 48.7893 49.5304 49 49 49H35C34.4696 49 33.9609 48.7893 33.5858 48.4142C33.2107 48.0391 33 47.5304 33 47V36Z" stroke="#737373" stroke-width="2" stroke-linecap="round" stroke-linejoin="round"/>
<rect x="101" y="56" width="20" height="4" rx="2" fill="#781596"/>
<path d="M201.5 18H174.5C170.36 18.0049 167.005 21.3599 167 25.5V52.5001C167.005 56.6402 170.36 59.9951 174.5 60H201.5C205.64 59.9951 208.995 56.6402 209 52.5001V25.5C208.995 21.3599 205.64 18.0049 201.5 18ZM195.5 40.5001H189.5V46.5001C189.5 47.3286 188.828 48.0001 188 48.0001C187.172 48.0001 186.5 47.3286 186.5 46.5001V40.5001H180.5C179.672 40.5001 179 39.8285 179 39C179 38.1716 179.672 37.5 180.5 37.5H186.5V31.5C186.5 30.6716 187.172 30 188 30C188.829 30 189.5 30.6716 189.5 31.5V37.5001H195.5C196.329 37.5001 197 38.1717 197 39.0001C197 39.8286 196.328 40.5001 195.5 40.5001Z" fill="#781596"/>
</svg>
