<svg width="10" height="10" viewBox="0 0 10 10" fill="none" xmlns="http://www.w3.org/2000/svg">
<path d="M0.550902 10C0.396977 9.99973 0.250241 9.93481 0.146496 9.82107C0.0408375 9.70825 -0.0116646 9.5557 0.0021827 9.40173L0.136619 7.92308L6.34702 1.71318L8.28784 3.65398L2.07908 9.86333L0.600835 9.99781C0.583825 9.99945 0.566814 10 0.550902 10ZM8.67523 3.26593L6.73496 1.32513L7.8988 0.160976C8.00172 0.0579109 8.14138 0 8.28702 0C8.43265 0 8.57231 0.0579109 8.67523 0.160976L9.83907 1.32513C9.9421 1.42808 10 1.56778 10 1.71345C10 1.85913 9.9421 1.99883 9.83907 2.10178L8.67578 3.26538L8.67523 3.26593Z" fill="#E1E1E1"/>
</svg>
