<svg width="331" height="55" viewBox="0 0 331 55" fill="none" xmlns="http://www.w3.org/2000/svg">
<mask id="path-1-inside-1_0_156" fill="white">
</mask>
<path d="M330 4.5V50.5H331V4.5H330ZM326.5 54H4.5V55H326.5V54ZM1 50.5V4.5H0V50.5H1ZM4.5 1H11.7037V0H4.5V1ZM318.427 1H326.5V0H318.427V1ZM4.5 54C2.567 54 1 52.433 1 50.5H0C0 52.9853 2.01471 55 4.5 55V54ZM330 50.5C330 52.433 328.433 54 326.5 54V55C328.985 55 331 52.9853 331 50.5H330ZM331 4.5C331 2.01472 328.985 0 326.5 0V1C328.433 1 330 2.567 330 4.5H331ZM1 4.5C1 2.567 2.567 1 4.5 1V0C2.01472 0 0 2.01472 0 4.5H1Z" fill="#781596" mask="url(#path-1-inside-1_0_156)"/>
</svg>
