<svg width="118" height="118" viewBox="0 0 118 118" fill="none" xmlns="http://www.w3.org/2000/svg">
<circle cx="58.8531" cy="58.8531" r="58.8531" fill="#EEF7FE"/>
<mask id="mask0_111_3888" style="mask-type:alpha" maskUnits="userSpaceOnUse" x="1" y="4" width="114" height="114">
<path d="M114.705 61.452C114.706 68.8776 113.244 76.2307 110.404 83.0913C107.564 89.952 103.4 96.1859 98.1503 101.437C92.9008 106.688 86.6684 110.853 79.8091 113.695C72.9499 116.537 65.598 118 58.1735 118C43.178 118 28.7967 112.042 18.1933 101.438C7.58996 90.8327 1.63306 76.4495 1.63306 61.452C1.63306 46.4546 7.58996 32.0714 18.1933 21.4666C28.7967 10.8618 43.178 4.90405 58.1735 4.90405C65.598 4.90405 72.9499 6.36677 79.8091 9.20869C86.6684 12.0506 92.9008 16.216 98.1503 21.4671C103.4 26.7182 107.564 32.9521 110.404 39.8128C113.244 46.6734 114.706 54.0265 114.705 61.452V61.452Z" fill="#F1F3F6"/>
</mask>
<g mask="url(#mask0_111_3888)">
<path d="M104.169 125.352H14.4685C14.6317 123.764 15.4405 118.243 19.477 111.185C24.2703 102.791 45.6399 103.986 46.3596 102.791C46.6713 102.271 46.8494 100.156 46.9533 97.937C47.0794 95.0575 47.0794 91.9998 47.0794 91.9998L59.3224 95.6067L71.5654 91.9998C71.5654 91.9998 71.5654 95.0352 71.6841 97.937C71.7954 100.164 71.9661 102.308 72.2851 102.835C73.0271 104.03 94.3671 102.835 99.1678 111.229C103.197 118.243 104.013 123.764 104.169 125.352Z" fill="#E1A387"/>
<path d="M104.169 125.352H14.4685C14.6317 123.763 15.4405 118.242 19.477 111.184C23.5135 104.126 39.4368 103.836 44.705 103.213C45.6622 103.094 46.2632 102.976 46.3745 102.79C46.3745 102.79 59.0998 119.355 72.3 102.79C72.4187 102.998 73.1756 103.131 74.3628 103.265C79.9723 103.859 95.2203 104.26 99.1826 111.184C103.197 118.242 104.013 123.763 104.169 125.352Z" fill="#860018"/>
<path d="M74.347 103.265C63.959 117.715 51.5676 109.796 44.667 103.213C45.6242 103.094 46.2252 102.976 46.3365 102.79C46.3365 102.79 59.0618 119.355 72.262 102.79C72.4029 102.998 73.1598 103.131 74.347 103.265Z" fill="#6B1524"/>
<path d="M38.3689 66.9894C38.3689 66.9894 32.6926 57.4006 30.3479 65.6164C28.0031 73.8321 33.672 77.7507 37.3894 76.9714C41.1069 76.1921 38.3689 66.9894 38.3689 66.9894Z" fill="#E1A387"/>
<path d="M37.7102 68.5549C37.7102 68.5549 33.7998 62.4841 32.4271 64.9332C31.5916 66.6647 31.2551 68.5947 31.4551 70.5068C31.4551 70.5068 32.2342 67.0855 34.7793 69.0225C34.7793 69.0225 32.3306 74.4997 37.3243 72.9337C37.2946 72.956 39.35 71.2935 37.7102 68.5549Z" fill="#CE8D75"/>
<path d="M79.1159 66.9894C79.1159 66.9894 84.7922 57.4006 87.137 65.6164C89.4817 73.8321 83.8128 77.7507 80.0954 76.9714C76.378 76.1921 79.1159 66.9894 79.1159 66.9894Z" fill="#E1A387"/>
<path d="M79.1936 69.1927C79.1936 69.1927 83.104 63.1218 84.4767 65.5709C85.3125 67.3024 85.6515 69.2318 85.4561 71.1445C85.4561 71.1445 84.6696 67.7232 82.1245 69.6602C82.1245 69.6602 84.5731 75.1374 79.5795 73.5714C79.5795 73.5937 77.5315 71.9312 79.1936 69.1927Z" fill="#CE8D75"/>
<path d="M79.2605 82.6416C78.8302 89.6921 70.7943 94.9095 65.5409 97.2399C62.5312 98.6436 59.1533 99.0543 55.8949 98.4125C36.039 92.5717 36.6029 79.1163 37.4933 75.3387C38.3837 71.5611 37.1668 64.2063 39.4967 55.4785C39.7967 54.349 40.2433 53.2637 40.8249 52.2501C44.3791 46.0456 51.9549 44.0492 51.9549 44.0492C65.0809 35.5663 74.2668 43.9008 77.2942 50.7287C77.4954 51.1745 77.6737 51.6303 77.8285 52.0942C80.1212 59.1225 79.7057 74.7301 79.2605 82.6416Z" fill="#F2C2AC"/>
<path fill-rule="evenodd" clip-rule="evenodd" d="M72.567 38.1725C72.6196 38.1594 72.6723 38.1468 72.7251 38.1345C73.1769 38.0235 73.6354 37.9417 74.0978 37.8896C74.4849 37.8935 74.8714 37.9208 75.2553 37.9712C75.6633 38.0344 76.0653 38.1312 76.4573 38.2607C82.1707 40.1829 82.6234 49.1333 81.8517 56.926C81.7923 57.4752 81.733 58.0244 81.6662 58.5588C81.2887 61.553 80.7562 64.5256 80.0709 67.4647C80.0021 67.7721 79.9361 68.0427 79.88 68.2728C79.8453 68.4149 79.8145 68.5417 79.789 68.6522C79.7073 68.9936 79.6554 69.1791 79.6554 69.1791L79.5144 68.244V68.1178C79.2102 65.78 78.0304 62.7594 76.5909 59.6869C74.9096 56.2874 73.0817 52.9636 71.1127 49.7247C67.712 50.8297 62.5863 52.334 56.04 53.7856C54.7638 54.0676 53.443 54.3497 52.0555 54.6243C50.1708 55.0003 48.1921 55.3664 46.1195 55.7227C37.8907 57.1105 34.1436 54.6985 32.5038 51.5962C32.3724 51.3551 32.2536 51.1074 32.1476 50.8541C30.6117 47.1433 31.7172 42.7868 31.7172 42.7868C32.1476 43.6996 33.0974 43.7887 34.4627 43.3063C34.7154 43.2185 34.9631 43.1169 35.2047 43.002C37.0389 42.194 39.4551 40.6327 42.2491 38.8272C46.9486 35.7905 52.7172 32.0629 58.5851 30.0662C59.7473 29.6571 60.9744 29.4635 62.206 29.4947C62.7893 29.5153 63.3688 29.5974 63.9349 29.7396C65.7746 30.2416 67.4407 31.2404 68.7505 32.6266C68.9508 32.8344 69.1512 33.0422 69.3441 33.2574C70.5334 34.6336 71.5478 36.1517 72.364 37.7772C72.4329 37.9085 72.5005 38.0403 72.567 38.1725Z" fill="#A16929"/>
<path d="M38.3542 43.4609C38.1094 44.2031 37.3154 58.794 38.0723 65.414L45.0693 47.0604L38.3542 43.4609Z" fill="#A16929"/>
<path d="M69.3614 33.2291C67.5583 35.2701 65.7256 37.2739 63.7222 39.1664C58.1795 44.4358 51.7612 49.0075 44.2818 51.041C40.5718 52.0355 36.2385 52.6589 32.5063 51.5976C32.3749 51.3565 32.2561 51.1088 32.1501 50.8554C32.4692 50.9519 32.7883 51.0261 33.137 51.1003C39.815 52.4659 47.235 50.0391 52.9855 46.6474C59.0144 42.9245 64.3539 38.1864 68.7678 32.6428C68.9681 32.8061 69.1685 33.0139 69.3614 33.2291Z" fill="#C98643"/>
<path d="M63.9558 29.7105C60.5723 35.2842 56.1277 40.1973 50.9782 43.3812C46.7934 45.9639 42.0743 46.9287 37.3626 45.3479C36.2003 44.9872 35.1854 44.261 34.4688 43.2773C34.7214 43.1894 34.9692 43.0879 35.2107 42.973C35.6491 43.4569 36.1819 43.8459 36.7764 44.1159C39.2666 45.2298 42.0547 45.4907 44.7083 44.8581C49.2197 43.7671 53.1449 40.7465 56.2909 37.4364C58.5615 35.0154 60.5526 32.3466 62.2269 29.4805C62.8097 29.4962 63.3892 29.5734 63.9558 29.7105V29.7105Z" fill="#C98643"/>
<path d="M73.0557 39.1132C69.7949 42.9296 66.1608 46.4103 62.2077 49.5035C60.2478 51.0616 58.1881 52.4896 56.0417 53.7783C54.7654 54.0604 53.4447 54.3424 52.0571 54.617C56.1581 52.7543 59.9433 50.2628 63.2762 47.2325C66.5707 44.3284 69.6162 41.1532 72.3805 37.7402C72.6179 38.2004 72.8405 38.6605 73.0557 39.1132Z" fill="#C98643"/>
<path d="M46.2481 60.2574C44.0221 61.6229 42.6939 64.9701 44.0221 67.1298C44.0814 67.2411 44.3115 67.1965 44.2966 67.0704C44.1914 66.0712 44.3128 65.0611 44.652 64.1154C44.9912 63.1696 45.5393 62.3126 46.2555 61.6081C47.2123 60.7357 48.4557 60.2446 49.7503 60.2277C51.2343 60.1312 51.8873 61.4597 53.0522 61.9124C53.2896 62.0089 53.5939 61.853 53.5122 61.6081C52.5922 58.8324 48.526 58.877 46.2481 60.2574Z" fill="#390A0A"/>
<path d="M54.1043 66.4923C54.1043 70.0918 51.8783 73.0159 49.1626 73.0159C46.4469 73.0159 44.2283 70.0918 44.2283 66.4923C44.2283 62.8928 46.4543 59.9688 49.1626 59.9688C51.8709 59.9688 54.1043 62.8928 54.1043 66.4923Z" fill="white"/>
<path d="M53.0612 66.6854C53.0612 69.3646 51.3769 71.5391 49.2993 71.5391C47.2217 71.5391 45.5374 69.3646 45.5374 66.6854C45.5374 64.0062 47.2217 61.8242 49.2993 61.8242C51.3769 61.8242 53.0612 64.021 53.0612 66.6854Z" fill="#3D79CA"/>
<path d="M52.4581 66.7593C52.4581 68.9858 51.078 70.8561 49.3788 70.8561C47.6796 70.8561 46.2996 69.0229 46.2996 66.7593C46.2996 64.4958 47.6796 62.6626 49.3788 62.6626C51.078 62.6626 52.4581 64.5032 52.4581 66.7593Z" fill="#390A0A"/>
<path d="M53.0586 63.2343C53.0586 63.6795 52.183 64.0358 51.1071 64.0358C50.0312 64.0358 49.1631 63.6795 49.1631 63.2343C49.1631 62.789 50.0386 62.4253 51.1071 62.4253C52.1756 62.4253 53.0586 62.7815 53.0586 63.2343Z" fill="white"/>
<path d="M71.3263 60.2574C73.5523 61.6229 74.8805 64.9701 73.5523 67.1298C73.4929 67.2411 73.2629 67.1965 73.2777 67.0704C73.383 66.0712 73.2615 65.0611 72.9224 64.1154C72.5832 63.1696 72.0351 62.3126 71.3189 61.6081C70.3647 60.7362 69.1237 60.245 67.8314 60.2277C66.3475 60.1312 65.6871 61.4597 64.5222 61.9124C64.2847 62.0089 63.9805 61.853 64.0621 61.6081C64.9822 58.8324 69.0483 58.877 71.3263 60.2574Z" fill="#390A0A"/>
<path d="M72.9904 66.4923C72.9904 70.0918 70.7644 73.0159 68.0561 73.0159C65.3478 73.0159 63.1218 70.0918 63.1218 66.4923C63.1218 62.8928 65.3478 59.9688 68.0561 59.9688C70.7644 59.9688 72.9904 62.8928 72.9904 66.4923Z" fill="white"/>
<path d="M71.9424 66.6854C71.9424 69.3646 70.258 71.5391 68.1804 71.5391C66.1028 71.5391 64.4185 69.3868 64.4185 66.6854C64.4185 63.9839 66.1028 61.8242 68.173 61.8242C70.2432 61.8242 71.9424 64.021 71.9424 66.6854Z" fill="#3D79CA"/>
<path d="M71.3509 66.7593C71.3509 68.9858 69.9707 70.8561 68.2641 70.8561C66.5575 70.8561 65.1848 69.0229 65.1848 66.7593C65.1848 64.4958 66.5649 62.6626 68.2641 62.6626C69.9633 62.6626 71.3509 64.5032 71.3509 66.7593Z" fill="#390A0A"/>
<path d="M71.9427 63.2343C71.9427 63.6795 71.0746 64.0358 69.9987 64.0358C68.9228 64.0358 68.0547 63.6795 68.0547 63.2343C68.0547 62.789 68.9228 62.4253 69.9987 62.4253C71.0746 62.4253 71.9427 62.7815 71.9427 63.2343Z" fill="white"/>
<path d="M58.6502 63.3449C58.6502 63.3449 57.1662 61.8606 56.8991 67.1448C56.632 72.4289 56.8991 77.9506 56.8991 77.9506C56.8991 77.9506 53.3969 75.9022 54.5618 78.8264C55.1925 80.3997 56.6765 81.2087 58.2718 81.6243C58.8513 81.7919 59.4667 81.79 60.0452 81.6191C60.6237 81.4481 61.1412 81.1151 61.5366 80.6595C61.9521 80.2513 64.1188 78.0545 63.4361 77.3717C63.1096 77.0378 61.2101 77.8244 60.7278 77.9506C60.713 77.9506 61.2769 62.1797 58.6502 63.3449Z" fill="#E1A387"/>
<path d="M67.3869 84.7428C67.3869 84.7428 60.5086 96.5357 51.011 85.1881C51.011 85.1881 56.5463 83.3178 58.572 84.9803L59.314 85.8189C59.314 85.8189 61.4509 83.1842 67.3869 84.7428Z" fill="#CE8D75"/>
<path d="M67.3869 84.7422C67.3869 84.7422 60.5086 96.5351 51.011 85.1875C51.0629 85.1875 60.3454 89.4475 67.3869 84.7422Z" fill="#E1A387"/>
<path d="M55.0265 57.5685C55.0265 58.8151 51.8464 58.1124 47.9596 58.1124C44.0727 58.1124 40.8926 58.8151 40.8926 57.5685C40.8926 56.3218 44.0656 53.5974 47.9596 53.5974C51.8535 53.5974 55.0265 56.3218 55.0265 57.5685Z" fill="#343434"/>
<path d="M75.4411 57.5685C75.4411 58.8151 72.268 58.1124 68.3741 58.1124C64.4802 58.1124 61.3071 58.8151 61.3071 57.5685C61.3071 56.3218 64.4802 53.5974 68.3741 53.5974C72.268 53.5974 75.4411 56.3218 75.4411 57.5685Z" fill="#343434"/>
</g>
</svg>
