<svg width="22" height="5" viewBox="0 0 22 5" fill="none" xmlns="http://www.w3.org/2000/svg">
<path fill-rule="evenodd" clip-rule="evenodd" d="M2.05573 4.63306C1.95314 4.63306 1.87163 4.59759 1.81027 4.52567C1.7489 4.45472 1.72302 4.36267 1.73356 4.24953L1.84095 2.82279C1.85054 2.79211 1.84575 2.77198 1.82561 2.76143C1.80452 2.74129 1.78438 2.74129 1.76425 2.76143L0.567627 3.58986C0.495715 3.63109 0.423803 3.65122 0.352849 3.65122C0.219572 3.65122 0.12273 3.59561 0.0613651 3.48247C0.0201354 3.40097 0 3.3396 0 3.29837C0 3.16605 0.0767063 3.05867 0.230119 2.97621L1.54947 2.36255C1.58015 2.35297 1.59549 2.33763 1.59549 2.31653C1.59549 2.2964 1.58015 2.28105 1.54947 2.27051L0.230119 1.64152C0.0862946 1.58015 0.0153413 1.47276 0.0153413 1.31935C0.0153413 1.25798 0.0306825 1.19662 0.0613651 1.13525C0.12273 1.02307 0.219572 0.9665 0.352849 0.9665C0.423803 0.9665 0.495715 0.987594 0.567627 1.02786L1.76425 1.85629C1.78438 1.87739 1.80452 1.88218 1.82561 1.87163C1.84575 1.86205 1.85054 1.84095 1.84095 1.81027L1.73356 0.383532C1.72302 0.271349 1.7537 0.179301 1.82561 0.107389C1.89656 0.0364355 1.98382 0 2.08641 0C2.18805 0 2.27051 0.0364355 2.33187 0.107389C2.39324 0.179301 2.41817 0.271349 2.40858 0.383532L2.30119 1.81027C2.29064 1.84095 2.29544 1.86205 2.31653 1.87163C2.33667 1.88218 2.36256 1.87739 2.39324 1.85629L3.57452 1.04321C3.64547 0.992388 3.71738 0.9665 3.78929 0.9665C3.93216 0.9665 4.03475 1.02786 4.09612 1.1506C4.1268 1.21196 4.14214 1.27333 4.14214 1.33469C4.14214 1.47851 4.06544 1.58015 3.91202 1.64152L2.60802 2.27051C2.57733 2.28105 2.56199 2.2964 2.56199 2.31653C2.56199 2.33763 2.57733 2.35297 2.60802 2.36255L3.91202 2.97621C4.06544 3.04812 4.14214 3.1603 4.14214 3.31371C4.14214 3.36549 4.1268 3.4211 4.09612 3.48247C4.03475 3.59561 3.93216 3.65122 3.78929 3.65122C3.71738 3.65122 3.64547 3.63109 3.57452 3.58986L2.39324 2.76143C2.36256 2.74129 2.33667 2.74129 2.31653 2.76143C2.29544 2.77198 2.29064 2.79211 2.30119 2.82279L2.40858 4.24953C2.41817 4.36267 2.38748 4.45472 2.31653 4.52567C2.24462 4.59759 2.15737 4.63306 2.05573 4.63306ZM10.9835 4.63322C10.8809 4.63322 10.7994 4.59774 10.738 4.52583C10.6766 4.45488 10.6507 4.36283 10.6613 4.24969L10.7687 2.82295C10.7792 2.79227 10.7735 2.77213 10.7533 2.76159C10.7332 2.74145 10.7121 2.74145 10.692 2.76159L9.49536 3.59002C9.42345 3.63124 9.35249 3.65138 9.28058 3.65138C9.1473 3.65138 9.05046 3.59577 8.9891 3.48263C8.94787 3.40113 8.92773 3.33976 8.92773 3.29853C8.92773 3.16621 9.00444 3.05882 9.15785 2.97636L10.4772 2.36271C10.5079 2.35313 10.5232 2.33778 10.5232 2.31669C10.5232 2.29655 10.5079 2.28121 10.4772 2.27067L9.15785 1.64167C9.01499 1.58031 8.94307 1.47292 8.94307 1.31951C8.94307 1.25814 8.95841 1.19678 8.9891 1.13541C9.05046 1.02323 9.1473 0.966659 9.28058 0.966659C9.35249 0.966659 9.42345 0.987753 9.49536 1.02802L10.692 1.85645C10.7121 1.87755 10.7332 1.88234 10.7533 1.87179C10.7735 1.8622 10.7792 1.84111 10.7687 1.81043L10.6613 0.38369C10.6507 0.271507 10.6814 0.17946 10.7533 0.107548C10.8253 0.0365942 10.9115 0.000158705 11.0141 0.000158705C11.1167 0.000158705 11.1982 0.0365942 11.2596 0.107548C11.321 0.17946 11.3469 0.271507 11.3363 0.38369L11.2289 1.81043C11.2184 1.84111 11.2241 1.8622 11.2443 1.87179C11.2644 1.88234 11.2903 1.87755 11.321 1.85645L12.5022 1.04336C12.5742 0.992547 12.6451 0.966659 12.717 0.966659C12.8599 0.966659 12.9625 1.02802 13.0238 1.15075C13.0545 1.21212 13.0699 1.27348 13.0699 1.33485C13.0699 1.47867 12.9932 1.58031 12.8398 1.64167L11.5357 2.27067C11.5051 2.28121 11.4897 2.29655 11.4897 2.31669C11.4897 2.33778 11.5051 2.35313 11.5357 2.36271L12.8398 2.97636C12.9932 3.04828 13.0699 3.16046 13.0699 3.31387C13.0699 3.36565 13.0545 3.42126 13.0238 3.48263C12.9625 3.59577 12.8599 3.65138 12.717 3.65138C12.6451 3.65138 12.5742 3.63124 12.5022 3.59002L11.321 2.76159C11.2903 2.74145 11.2644 2.74145 11.2443 2.76159C11.2241 2.77213 11.2184 2.79227 11.2289 2.82295L11.3363 4.24969C11.3469 4.36283 11.3162 4.45488 11.2443 4.52583C11.1724 4.59774 11.0861 4.63322 10.9835 4.63322ZM19.668 4.52583C19.7294 4.59774 19.8109 4.63322 19.9135 4.63322C20.0151 4.63322 20.1024 4.59774 20.1743 4.52583C20.2452 4.45488 20.2759 4.36283 20.2663 4.24969L20.159 2.82295C20.1484 2.79227 20.1532 2.77213 20.1743 2.76159C20.1944 2.74145 20.2203 2.74145 20.251 2.76159L21.4323 3.59002C21.5032 3.63124 21.5751 3.65138 21.6471 3.65138C21.7899 3.65138 21.8925 3.59577 21.9539 3.48263C21.9846 3.42126 21.9999 3.36565 21.9999 3.31387C21.9999 3.16046 21.9232 3.04828 21.7698 2.97636L20.4658 2.36271C20.4351 2.35313 20.4198 2.33778 20.4198 2.31669C20.4198 2.29655 20.4351 2.28121 20.4658 2.27067L21.7698 1.64167C21.9232 1.58031 21.9999 1.47867 21.9999 1.33485C21.9999 1.27348 21.9846 1.21212 21.9539 1.15075C21.8925 1.02802 21.7899 0.966659 21.6471 0.966659C21.5751 0.966659 21.5032 0.992547 21.4323 1.04336L20.251 1.85645C20.2203 1.87755 20.1944 1.88234 20.1743 1.87179C20.1532 1.8622 20.1484 1.84111 20.159 1.81043L20.2663 0.38369C20.2759 0.271507 20.251 0.17946 20.1896 0.107548C20.1283 0.0365942 20.0458 0.000158705 19.9442 0.000158705C19.8416 0.000158705 19.7543 0.0365942 19.6834 0.107548C19.6115 0.17946 19.5808 0.271507 19.5913 0.38369L19.6987 1.81043C19.7083 1.84111 19.7035 1.8622 19.6834 1.87179C19.6623 1.88234 19.6421 1.87755 19.622 1.85645L18.4254 1.02802C18.3535 0.987753 18.2816 0.966659 18.2106 0.966659C18.0773 0.966659 17.9805 1.02323 17.9191 1.13541C17.8884 1.19678 17.8731 1.25814 17.8731 1.31951C17.8731 1.47292 17.9441 1.58031 18.0879 1.64167L19.4072 2.27067C19.4379 2.28121 19.4533 2.29655 19.4533 2.31669C19.4533 2.33778 19.4379 2.35313 19.4072 2.36271L18.0879 2.97636C17.9345 3.05882 17.8578 3.16621 17.8578 3.29853C17.8578 3.33976 17.8779 3.40113 17.9191 3.48263C17.9805 3.59577 18.0773 3.65138 18.2106 3.65138C18.2816 3.65138 18.3535 3.63124 18.4254 3.59002L19.622 2.76159C19.6421 2.74145 19.6623 2.74145 19.6834 2.76159C19.7035 2.77213 19.7083 2.79227 19.6987 2.82295L19.5913 4.24969C19.5808 4.36283 19.6067 4.45488 19.668 4.52583Z" fill="white"/>
</svg>
