<svg width="39" height="39" viewBox="0 0 39 39" fill="none" xmlns="http://www.w3.org/2000/svg">
<path d="M21.6839 2.04436C21.6839 0.91529 20.7686 -3.32015e-07 19.6396 -3.79744e-07L19.3606 -3.91538e-07C18.2315 -4.39266e-07 17.3162 0.915289 17.3162 2.04436V15.2716C17.3162 16.4007 16.4009 17.316 15.2719 17.316L2.04461 17.316C0.915538 17.316 0.0002475 18.2313 0.0002475 19.3603V19.6393C0.0002475 20.7684 0.915537 21.6837 2.0446 21.6837L15.2719 21.6837C16.4009 21.6837 17.3162 22.599 17.3162 23.728L17.3162 36.9553C17.3162 38.0844 18.2315 38.9996 19.3606 38.9996L19.6396 38.9996C20.7686 38.9996 21.6839 38.0844 21.6839 36.9553L21.6839 23.728C21.6839 22.599 22.5992 21.6837 23.7283 21.6837H36.9555C38.0846 21.6837 38.9999 20.7684 38.9999 19.6393V19.3603C38.9999 18.2313 38.0846 17.316 36.9555 17.316L23.7283 17.316C22.5992 17.316 21.6839 16.4007 21.6839 15.2716L21.6839 2.04436Z" fill="black" fill-opacity="0.46"/>
</svg>
