<svg width="91" height="113" viewBox="0 0 91 113" fill="none" xmlns="http://www.w3.org/2000/svg">
<path d="M79.625 113H11.375C5.09276 113 0 107.941 0 101.7V11.3044C0 5.06388 5.09276 0.00492361 11.375 0.00492361H51.1875C51.2385 -0.0016412 51.2901 -0.0016412 51.3411 0.00492361H51.3752C51.4289 0.0216359 51.4842 0.0329915 51.5401 0.0388221C52.0417 0.0707613 52.5369 0.167626 53.0132 0.32696H53.0985H53.1838H53.2521C53.357 0.399987 53.4559 0.481225 53.5478 0.569899C54.1674 0.84348 54.732 1.22631 55.2143 1.69985L89.3393 35.5984C89.816 36.0774 90.2013 36.6382 90.4767 37.2537C90.5279 37.378 90.5677 37.4967 90.6076 37.6266L90.6644 37.7848C90.8232 38.256 90.917 38.7463 90.9431 39.2425C90.9481 39.2987 90.9615 39.354 90.9829 39.4063V39.4402C90.9923 39.4772 90.998 39.5151 91 39.5532V101.7C91 104.697 89.8016 107.571 87.6683 109.69C85.5351 111.81 82.6418 113 79.625 113ZM28.4375 79.1015L11.375 101.7H79.625L51.1875 62.1522L34.125 84.7512L28.4375 79.1015ZM25.5938 50.8527C20.9412 50.859 17.1517 54.567 17.0752 59.188C16.9987 63.809 20.6635 67.6388 25.3133 67.797C29.9631 67.9552 33.8831 64.3834 34.125 59.768V61.4064V59.3273C34.125 54.6469 30.3054 50.8527 25.5938 50.8527ZM51.1875 11.3044V39.5532H79.625L51.1875 11.3044Z" fill="white"/>
</svg>
