<svg width="191" height="11" viewBox="0 0 191 11" fill="none" xmlns="http://www.w3.org/2000/svg">
<path fill-rule="evenodd" clip-rule="evenodd" d="M3.84857 8.78563H5.10551V6.16808C5.10551 5.7923 5.27397 5.52018 5.75342 5.52018C6.23287 5.52018 6.40133 5.7923 6.40133 6.16808V9.43354C6.40133 9.90003 6.09034 10.0814 5.75342 10.0814H0.647908C0.310996 10.0814 0 9.90003 0 9.43354C0 8.96705 0.310996 8.78563 0.647908 8.78563H2.55276V1.29582H0.647908C0.310996 1.29582 0 1.1144 0 0.647908C0 0.181414 0.310996 0 0.647908 0H3.84857V8.78563ZM11.5513 5.68863V8.78563H16.009C16.3459 8.78563 16.6569 8.96705 16.6569 9.43354C16.6569 9.90003 16.3459 10.0814 16.009 10.0814H10.2555V5.85709C10.2555 4.88523 10.7479 4.39282 11.7198 4.39282H15.361V1.29582H10.9034C10.5665 1.29582 10.2555 1.1144 10.2555 0.647908C10.2555 0.181414 10.5665 0 10.9034 0H15.2055C15.6332 0 15.9312 0.0647908 16.2552 0.362828C16.618 0.699741 16.6569 1.04961 16.6569 1.5161V4.17253C16.6569 4.63902 16.618 4.98889 16.2552 5.3258C15.9312 5.62384 15.6332 5.68863 15.2055 5.68863H11.5513ZM25.6166 1.29582H21.159C20.8221 1.29582 20.5111 1.1144 20.5111 0.647908C20.5111 0.181414 20.8221 0 21.159 0H25.6166C26.3552 0 26.9124 0.557201 26.9124 1.29582V3.78378C26.9124 4.30211 26.8087 4.6779 26.407 5.04072C26.8087 5.40355 26.9124 5.77934 26.9124 6.29767V8.78563C26.9124 9.52425 26.3552 10.0814 25.6166 10.0814H21.159C20.8221 10.0814 20.5111 9.90003 20.5111 9.43354C20.5111 8.96705 20.8221 8.78563 21.159 8.78563H25.6166V6.63458C25.6166 5.90892 25.3315 5.68863 24.9687 5.68863H22.4289C22.092 5.68863 21.781 5.50722 21.781 5.04072C21.781 4.57423 22.092 4.39282 22.4289 4.39282H24.9687C25.3315 4.39282 25.6166 4.17253 25.6166 3.44687V1.29582ZM32.7105 5.49426H35.2244V1.74935C35.2244 1.4254 35.3799 1.10144 35.8723 1.10144C36.3647 1.10144 36.5202 1.4254 36.5202 1.74935V5.49426C36.8571 5.49426 37.1681 5.67567 37.1681 6.14217C37.1681 6.60866 36.8571 6.79008 36.5202 6.79008V9.43354C36.5202 9.8482 36.3388 10.0814 35.8723 10.0814C35.4058 10.0814 35.2244 9.8482 35.2244 9.43354V6.79008H31.4147V0.647908C31.4147 0.323954 31.5702 0 32.0626 0C32.555 0 32.7105 0.323954 32.7105 0.647908V5.49426ZM53.8563 1.29582V4.39282H56.2406C56.6553 4.39282 56.9663 4.45761 57.2773 4.75564C57.6401 5.09256 57.679 5.40355 57.679 5.85709V8.63013C57.679 9.03184 57.6401 9.31692 57.368 9.64087C57.044 10.0296 56.7071 10.0814 56.2406 10.0814H53.3639C53.027 10.0814 52.8326 9.99074 52.5087 9.8482L52.0163 9.62791C51.6664 9.47241 51.2777 9.35579 51.2777 8.90226C51.2777 8.56534 51.5627 8.25435 51.8996 8.25435C52.0551 8.25435 52.1718 8.29322 52.3143 8.35801L52.703 8.52647C52.8845 8.60422 53.1825 8.78563 53.3898 8.78563H56.3832V5.68863H52.5605V0H57.0311C57.368 0 57.679 0.181414 57.679 0.647908C57.679 1.1144 57.368 1.29582 57.0311 1.29582H53.8563ZM62.829 1.29582V5.49426H67.157C67.8049 5.49426 67.9345 5.76638 67.9345 6.36246V9.26508C67.9345 9.87412 67.6753 10.0814 67.0922 10.0814H62.3755C61.7664 10.0814 61.5332 9.86116 61.5332 9.26508V0.647908C61.5332 0.34987 61.6368 0 62.0904 0H62.8679C63.2048 0 63.4769 0.310996 63.4769 0.647908C63.4769 1.03665 63.2048 1.29582 62.829 1.29582ZM66.6382 6.79002H62.8285V8.78557H66.6382V6.79002ZM76.8933 1.29582H73.0836C73.0836 1.5809 72.8504 1.94372 72.4357 1.94372C72.0211 1.94372 71.7878 1.5809 71.7878 1.29582V0.647908C71.7878 0.362828 72.0211 0 72.4357 0H78.1892L78.1891 3.75787C78.1891 4.2114 78.2021 4.26323 77.8393 4.57423L76.0251 6.14217C75.6882 6.44021 75.6623 6.46612 75.6623 6.91966V9.43354C75.6623 9.8482 75.4809 10.0814 75.0144 10.0814C74.5479 10.0814 74.3665 9.8482 74.3665 9.43354V6.31062C74.3665 5.883 74.3794 5.84413 74.7034 5.55905L76.4916 4.01703C76.9192 3.64124 76.8933 3.6542 76.8933 3.08404V1.29582ZM84.6357 4.39273H85.8538V1.29573H84.6357V4.39273ZM83.9871 0H86.5009C86.9415 0 87.1489 0.310996 87.1489 0.647908V4.39282C87.5506 4.39282 87.8616 4.53536 88.0948 4.75564C88.328 4.97593 88.4447 5.29989 88.4447 5.70159V8.78563C88.4447 9.57608 87.9523 10.0814 87.1489 10.0814H83.3392C82.5357 10.0814 82.0433 9.57608 82.0433 8.78563V5.70159C82.0433 5.29989 82.16 4.97593 82.3932 4.75564C82.6265 4.53536 82.9375 4.39282 83.3392 4.39282V0.647908C83.3392 0.310996 83.5465 0 83.9871 0ZM83.3395 8.78563H87.1492V5.68863H83.3395V8.78563ZM107.66 8.78563V4.6131H103.202C102.839 4.6131 102.554 4.30211 102.554 3.9652V0.647908C102.554 0.310996 102.839 0 103.202 0H108.308C108.671 0 108.956 0.310996 108.956 0.647908V9.43354C108.956 9.78341 108.697 10.0814 108.308 10.0814H107.66C107.271 10.0814 107.012 9.78341 107.012 9.43354C107.012 9.0448 107.284 8.78563 107.66 8.78563ZM103.851 3.3172H107.66V1.29573H103.851V3.3172ZM114.106 0H117.915C118.628 0 119.211 0.583117 119.211 1.29582V8.78563C119.211 9.51129 118.654 10.0814 117.915 10.0814H114.106C113.367 10.0814 112.81 9.51129 112.81 8.78563V1.29582C112.81 0.583117 113.393 0 114.106 0ZM114.106 8.78554H117.916V1.29573H114.106V8.78554ZM126.914 8.78563H128.171V6.16808C128.171 5.7923 128.339 5.52018 128.819 5.52018C129.298 5.52018 129.467 5.7923 129.467 6.16808V9.43354C129.467 9.90003 129.156 10.0814 128.819 10.0814H123.713C123.376 10.0814 123.065 9.90003 123.065 9.43354C123.065 8.96705 123.376 8.78563 123.713 8.78563H125.618V1.29582H123.713C123.376 1.29582 123.065 1.1144 123.065 0.647908C123.065 0.181414 123.376 0 123.713 0H126.914V8.78563ZM134.617 5.68863V8.78563H139.074C139.411 8.78563 139.722 8.96705 139.722 9.43354C139.722 9.90003 139.411 10.0814 139.074 10.0814H133.321V5.85709C133.321 4.88523 133.813 4.39282 134.785 4.39282H138.427V1.29582H133.969C133.632 1.29582 133.321 1.1144 133.321 0.647908C133.321 0.181414 133.632 0 133.969 0H138.271C138.699 0 138.997 0.0647908 139.321 0.362828C139.683 0.699741 139.722 1.04961 139.722 1.5161V4.17253C139.722 4.63902 139.683 4.98889 139.321 5.3258C138.997 5.62384 138.699 5.68863 138.271 5.68863H134.617ZM158.938 1.29582H154.48C154.143 1.29582 153.832 1.1144 153.832 0.647908C153.832 0.181414 154.143 0 154.48 0H158.938C159.676 0 160.233 0.557201 160.233 1.29582V3.78378C160.233 4.30211 160.13 4.6779 159.728 5.04072C160.13 5.40355 160.233 5.77934 160.233 6.29767V8.78563C160.233 9.52425 159.676 10.0814 158.938 10.0814H154.48C154.143 10.0814 153.832 9.90003 153.832 9.43354C153.832 8.96705 154.143 8.78563 154.48 8.78563H158.938V6.63458C158.938 5.90892 158.652 5.68863 158.29 5.68863H155.75C155.413 5.68863 155.102 5.50722 155.102 5.04072C155.102 4.57423 155.413 4.39282 155.75 4.39282H158.29C158.652 4.39282 158.938 4.17253 158.938 3.44687V1.29582ZM166.031 5.49426H168.545V1.74935C168.545 1.4254 168.701 1.10144 169.193 1.10144C169.686 1.10144 169.841 1.4254 169.841 1.74935V5.49426C170.178 5.49426 170.489 5.67567 170.489 6.14217C170.489 6.60866 170.178 6.79008 169.841 6.79008V9.43354C169.841 9.8482 169.66 10.0814 169.193 10.0814C168.727 10.0814 168.545 9.8482 168.545 9.43354V6.79008H164.736V0.647908C164.736 0.323954 164.891 0 165.384 0C165.876 0 166.031 0.323954 166.031 0.647908V5.49426ZM176.922 1.29582V4.39282H179.306C179.721 4.39282 180.032 4.45761 180.343 4.75564C180.706 5.09256 180.744 5.40355 180.744 5.85709V8.63013C180.744 9.03184 180.706 9.31692 180.433 9.64087C180.109 10.0296 179.773 10.0814 179.306 10.0814H176.429C176.092 10.0814 175.898 9.99074 175.574 9.8482L175.082 9.62791C174.732 9.47241 174.343 9.35579 174.343 8.90226C174.343 8.56534 174.628 8.25435 174.965 8.25435C175.121 8.25435 175.237 8.29322 175.38 8.35801L175.769 8.52647C175.95 8.60422 176.248 8.78563 176.455 8.78563H179.449V5.68863H175.626V0H180.097C180.433 0 180.744 0.181414 180.744 0.647908C180.744 1.1144 180.433 1.29582 180.097 1.29582H176.922ZM185.894 1.29582V5.49426H190.222C190.87 5.49426 191 5.76638 191 6.36246V9.26508C191 9.87412 190.741 10.0814 190.158 10.0814H185.441C184.832 10.0814 184.599 9.86116 184.599 9.26508V0.647908C184.599 0.34987 184.702 0 185.156 0H185.933C186.27 0 186.542 0.310996 186.542 0.647908C186.542 1.03665 186.27 1.29582 185.894 1.29582ZM189.704 6.79002H185.894V8.78557H189.704V6.79002Z" fill="white"/>
</svg>
