<svg width="20" height="18" viewBox="0 0 20 18" fill="none" xmlns="http://www.w3.org/2000/svg">
<path d="M3.74993 1.28571C3.74993 0.944722 3.61823 0.617695 3.38381 0.376577C3.14939 0.135459 2.83144 0 2.49992 0C2.16839 0 1.85045 0.135459 1.61602 0.376577C1.3816 0.617695 1.2499 0.944722 1.2499 1.28571V10.6303C0.869881 10.856 0.554311 11.1806 0.334908 11.5715C0.115506 11.9624 0 12.4058 0 12.8571C0 13.3085 0.115506 13.7519 0.334908 14.1428C0.554311 14.5337 0.869881 14.8583 1.2499 15.084V16.7143C1.2499 17.0553 1.3816 17.3823 1.61602 17.6234C1.85045 17.8645 2.16839 18 2.49992 18C2.83144 18 3.14939 17.8645 3.38381 17.6234C3.61823 17.3823 3.74993 17.0553 3.74993 16.7143V15.084C4.12995 14.8583 4.44552 14.5337 4.66493 14.1428C4.88433 13.7519 4.99983 13.3085 4.99983 12.8571C4.99983 12.4058 4.88433 11.9624 4.66493 11.5715C4.44552 11.1806 4.12995 10.856 3.74993 10.6303V1.28571ZM11.25 1.28571C11.25 0.944722 11.1183 0.617695 10.8839 0.376577C10.6495 0.135459 10.3315 0 10 0C9.66848 0 9.35053 0.135459 9.11611 0.376577C8.88168 0.617695 8.74999 0.944722 8.74999 1.28571V2.916C8.36996 3.1417 8.05439 3.46631 7.83499 3.8572C7.61559 4.24809 7.50008 4.6915 7.50008 5.14286C7.50008 5.59421 7.61559 6.03762 7.83499 6.42851C8.05439 6.81941 8.36996 7.14402 8.74999 7.36971V16.7143C8.74999 17.0553 8.88168 17.3823 9.11611 17.6234C9.35053 17.8645 9.66848 18 10 18C10.3315 18 10.6495 17.8645 10.8839 17.6234C11.1183 17.3823 11.25 17.0553 11.25 16.7143V7.36971C11.63 7.14402 11.9456 6.81941 12.165 6.42851C12.3844 6.03762 12.4999 5.59421 12.4999 5.14286C12.4999 4.6915 12.3844 4.24809 12.165 3.8572C11.9456 3.46631 11.63 3.1417 11.25 2.916V1.28571ZM17.5001 0C17.8316 0 18.1496 0.135459 18.384 0.376577C18.6184 0.617695 18.7501 0.944722 18.7501 1.28571V10.6303C19.1301 10.856 19.4457 11.1806 19.6651 11.5715C19.8845 11.9624 20 12.4058 20 12.8571C20 13.3085 19.8845 13.7519 19.6651 14.1428C19.4457 14.5337 19.1301 14.8583 18.7501 15.084V16.7143C18.7501 17.0553 18.6184 17.3823 18.384 17.6234C18.1496 17.8645 17.8316 18 17.5001 18C17.1686 18 16.8506 17.8645 16.6162 17.6234C16.3818 17.3823 16.2501 17.0553 16.2501 16.7143V15.084C15.87 14.8583 15.5545 14.5337 15.3351 14.1428C15.1157 13.7519 15.0002 13.3085 15.0002 12.8571C15.0002 12.4058 15.1157 11.9624 15.3351 11.5715C15.5545 11.1806 15.87 10.856 16.2501 10.6303V1.28571C16.2501 0.944722 16.3818 0.617695 16.6162 0.376577C16.8506 0.135459 17.1686 0 17.5001 0V0Z" fill="black"/>
</svg>
