<svg width="94" height="55" viewBox="0 0 94 55" fill="none" xmlns="http://www.w3.org/2000/svg">
<mask id="path-1-inside-1_0_166" fill="white">
</mask>
<path d="M93 3.90244V50.5H94V3.90244H93ZM89.5 54H4.5V55H89.5V54ZM1 50.5V3.65741H0V50.5H1ZM4.5 54C2.567 54 1 52.433 1 50.5H0C0 52.9853 2.01472 55 4.5 55V54ZM93 50.5C93 52.433 91.433 54 89.5 54V55C91.9853 55 94 52.9853 94 50.5H93ZM94 3.90244C94 1.74718 92.2528 0 90.0976 0V1C91.7005 1 93 2.29947 93 3.90244H94ZM1 3.65741C1 2.18976 2.18976 1 3.65741 1V0C1.63748 0 0 1.63748 0 3.65741H1Z" fill="black" fill-opacity="0.6" mask="url(#path-1-inside-1_0_166)"/>
</svg>
