<svg width="28" height="15" viewBox="0 0 28 15" fill="none" xmlns="http://www.w3.org/2000/svg">
<path fill-rule="evenodd" clip-rule="evenodd" d="M9.90077 14.8547C9.98685 14.9516 10.0945 15 10.2237 15C10.3313 15 10.4228 14.9738 10.4982 14.9193C10.5735 14.8658 10.6489 14.774 10.7242 14.6448L17.7479 0.726588C17.7909 0.629709 17.8125 0.532831 17.8125 0.435953C17.8125 0.306782 17.7694 0.204857 17.6833 0.129171C17.5971 0.0433934 17.5003 0 17.3927 0C17.2742 0 17.172 0.0322928 17.0859 0.0968784C17.0105 0.151372 16.9351 0.248251 16.8599 0.387514L9.83618 14.2896C9.79309 14.3652 9.7716 14.446 9.7716 14.5318C9.7716 14.6609 9.81459 14.7689 9.90077 14.8547ZM2.16362 6.44241C2.05594 6.44241 1.96986 6.40507 1.90527 6.32939C1.84069 6.25471 1.81374 6.15783 1.82454 6.03875L1.93757 4.53714C1.94826 4.50484 1.94292 4.48365 1.92142 4.47255C1.89983 4.45136 1.87833 4.45136 1.85684 4.47255L0.597417 5.34446C0.522033 5.38785 0.44665 5.40904 0.371367 5.40904C0.231398 5.40904 0.129171 5.35051 0.0645856 5.23143C0.0214949 5.14565 0 5.08107 0 5.03768C0 4.89841 0.080732 4.78539 0.242196 4.6986L1.63079 4.05275C1.66308 4.04265 1.67923 4.02651 1.67923 4.00431C1.67923 3.98311 1.66308 3.96697 1.63079 3.95587L0.242196 3.29386C0.091429 3.22928 0.0161464 3.11625 0.0161464 2.95479C0.0161464 2.8902 0.0322928 2.82562 0.0645856 2.76103C0.129171 2.64296 0.231398 2.58342 0.371367 2.58342C0.44665 2.58342 0.522033 2.60562 0.597417 2.64801L1.85684 3.51991C1.87833 3.54212 1.89983 3.54716 1.92142 3.53606C1.94292 3.52597 1.94826 3.50377 1.93757 3.47148L1.82454 1.96986C1.81374 1.85179 1.84604 1.75491 1.92142 1.67923C1.9967 1.60455 2.08823 1.5662 2.19591 1.5662C2.30349 1.5662 2.38967 1.60455 2.45425 1.67923C2.51884 1.75491 2.54568 1.85179 2.53498 1.96986L2.42196 3.47148C2.41116 3.50377 2.41651 3.52597 2.43811 3.53606C2.4596 3.54716 2.48654 3.54212 2.51884 3.51991L3.76211 2.66416C3.83739 2.61067 3.91278 2.58342 3.98816 2.58342C4.13883 2.58342 4.2465 2.64801 4.31109 2.77718C4.34338 2.84177 4.35953 2.90635 4.35953 2.97094C4.35953 3.12231 4.27879 3.22928 4.11733 3.29386L2.74489 3.95587C2.71259 3.96697 2.69645 3.98311 2.69645 4.00431C2.69645 4.02651 2.71259 4.04265 2.74489 4.05275L4.11733 4.6986C4.27879 4.77429 4.35953 4.89236 4.35953 5.05382C4.35953 5.10832 4.34338 5.16685 4.31109 5.23143C4.2465 5.35051 4.13883 5.40904 3.98816 5.40904C3.91278 5.40904 3.83739 5.38785 3.76211 5.34446L2.51884 4.47255C2.48654 4.45136 2.4596 4.45136 2.43811 4.47255C2.41651 4.48365 2.41116 4.50484 2.42196 4.53714L2.53498 6.03875C2.54568 6.15783 2.51339 6.25471 2.43811 6.32939C2.36272 6.40507 2.27119 6.44241 2.16362 6.44241ZM7.14629 6.44241C7.03862 6.44241 6.95254 6.40507 6.88795 6.32939C6.82337 6.25471 6.79642 6.15783 6.80722 6.03875L6.92024 4.53714C6.93094 4.50484 6.92559 4.48365 6.9041 4.47255C6.8825 4.45136 6.86101 4.45136 6.83951 4.47255L5.58009 5.34446C5.50471 5.38785 5.42933 5.40904 5.35404 5.40904C5.21407 5.40904 5.11185 5.35051 5.04726 5.23143C5.00417 5.14565 4.98268 5.08107 4.98268 5.03768C4.98268 4.89841 5.06341 4.78539 5.22487 4.6986L6.61346 4.05275C6.64576 4.04265 6.6619 4.02651 6.6619 4.00431C6.6619 3.98311 6.64576 3.96697 6.61346 3.95587L5.22487 3.29386C5.07411 3.22928 4.99882 3.11625 4.99882 2.95479C4.99882 2.8902 5.01497 2.82562 5.04726 2.76103C5.11185 2.64296 5.21407 2.58342 5.35404 2.58342C5.42933 2.58342 5.50471 2.60562 5.58009 2.64801L6.83951 3.51991C6.86101 3.54212 6.8825 3.54716 6.9041 3.53606C6.92559 3.52597 6.93094 3.50377 6.92024 3.47148L6.80722 1.96986C6.79642 1.85179 6.82871 1.75491 6.9041 1.67923C6.97938 1.60455 7.07091 1.5662 7.17859 1.5662C7.28616 1.5662 7.37234 1.60455 7.43693 1.67923C7.50151 1.75491 7.52836 1.85179 7.51766 1.96986L7.40464 3.47148C7.39384 3.50377 7.39919 3.52597 7.42078 3.53606C7.44228 3.54716 7.46922 3.54212 7.50151 3.51991L8.74479 2.66416C8.82007 2.61067 8.89545 2.58342 8.97084 2.58342C9.1215 2.58342 9.22918 2.64801 9.29376 2.77718C9.32606 2.84177 9.3422 2.90635 9.3422 2.97094C9.3422 3.12231 9.26147 3.22928 9.10001 3.29386L7.72756 3.95587C7.69527 3.96697 7.67912 3.98311 7.67912 4.00431C7.67912 4.02651 7.69527 4.04265 7.72756 4.05275L9.10001 4.6986C9.26147 4.77429 9.3422 4.89236 9.3422 5.05382C9.3422 5.10832 9.32606 5.16685 9.29376 5.23143C9.22918 5.35051 9.1215 5.40904 8.97084 5.40904C8.89545 5.40904 8.82007 5.38785 8.74479 5.34446L7.50151 4.47255C7.46922 4.45136 7.44228 4.45136 7.42078 4.47255C7.39919 4.48365 7.39384 4.50484 7.40464 4.53714L7.51766 6.03875C7.52836 6.15783 7.49607 6.25471 7.42078 6.32939C7.3454 6.40507 7.25387 6.44241 7.14629 6.44241ZM20.5649 6.44241C20.4572 6.44241 20.3711 6.40507 20.3065 6.32939C20.2419 6.25471 20.215 6.15783 20.2258 6.03875L20.3388 4.53714C20.3495 4.50484 20.3442 4.48365 20.3227 4.47255C20.3011 4.45136 20.2796 4.45136 20.2581 4.47255L18.9987 5.34446C18.9233 5.38785 18.8479 5.40904 18.7726 5.40904C18.6326 5.40904 18.5304 5.35051 18.4658 5.23143C18.4227 5.14565 18.4012 5.08107 18.4012 5.03768C18.4012 4.89841 18.482 4.78539 18.6434 4.6986L20.032 4.05275C20.0643 4.04265 20.0805 4.02651 20.0805 4.00431C20.0805 3.98311 20.0643 3.96697 20.032 3.95587L18.6434 3.29386C18.4927 3.22928 18.4174 3.11625 18.4174 2.95479C18.4174 2.8902 18.4335 2.82562 18.4658 2.76103C18.5304 2.64296 18.6326 2.58342 18.7726 2.58342C18.8479 2.58342 18.9233 2.60562 18.9987 2.64801L20.2581 3.51991C20.2796 3.54212 20.3011 3.54716 20.3227 3.53606C20.3442 3.52597 20.3495 3.50377 20.3388 3.47148L20.2258 1.96986C20.215 1.85179 20.2473 1.75491 20.3227 1.67923C20.3979 1.60455 20.4895 1.5662 20.5972 1.5662C20.7047 1.5662 20.7909 1.60455 20.8555 1.67923C20.9201 1.75491 20.9469 1.85179 20.9362 1.96986L20.8232 3.47148C20.8124 3.50377 20.8177 3.52597 20.8393 3.53606C20.8608 3.54716 20.8878 3.54212 20.9201 3.51991L22.1634 2.66416C22.2386 2.61067 22.314 2.58342 22.3894 2.58342C22.5401 2.58342 22.6477 2.64801 22.7123 2.77718C22.7446 2.84177 22.7608 2.90635 22.7608 2.97094C22.7608 3.12231 22.68 3.22928 22.5186 3.29386L21.1461 3.95587C21.1138 3.96697 21.0977 3.98311 21.0977 4.00431C21.0977 4.02651 21.1138 4.04265 21.1461 4.05275L22.5186 4.6986C22.68 4.77429 22.7608 4.89236 22.7608 5.05382C22.7608 5.10832 22.7446 5.16685 22.7123 5.23143C22.6477 5.35051 22.5401 5.40904 22.3894 5.40904C22.314 5.40904 22.2386 5.38785 22.1634 5.34446L20.9201 4.47255C20.8878 4.45136 20.8608 4.45136 20.8393 4.47255C20.8177 4.48365 20.8124 4.50484 20.8232 4.53714L20.9362 6.03875C20.9469 6.15783 20.9146 6.25471 20.8393 6.32939C20.764 6.40507 20.6724 6.44241 20.5649 6.44241ZM25.2892 6.32939C25.3538 6.40507 25.4399 6.44241 25.5475 6.44241C25.6551 6.44241 25.7466 6.40507 25.822 6.32939C25.8973 6.25471 25.9296 6.15783 25.9189 6.03875L25.8059 4.53714C25.7951 4.50484 25.8004 4.48365 25.822 4.47255C25.8435 4.45136 25.8705 4.45136 25.9028 4.47255L27.146 5.34446C27.2213 5.38785 27.2967 5.40904 27.3721 5.40904C27.5227 5.40904 27.6304 5.35051 27.695 5.23143C27.7273 5.16685 27.7434 5.10832 27.7434 5.05382C27.7434 4.89236 27.6627 4.77429 27.5012 4.6986L26.1288 4.05275C26.0965 4.04265 26.0804 4.02651 26.0804 4.00431C26.0804 3.98311 26.0965 3.96697 26.1288 3.95587L27.5012 3.29386C27.6627 3.22928 27.7434 3.12231 27.7434 2.97094C27.7434 2.90635 27.7273 2.84177 27.695 2.77718C27.6304 2.64801 27.5227 2.58342 27.3721 2.58342C27.2967 2.58342 27.2213 2.61067 27.146 2.66416L25.9028 3.51991C25.8705 3.54212 25.8435 3.54716 25.822 3.53606C25.8004 3.52597 25.7951 3.50377 25.8059 3.47148L25.9189 1.96986C25.9296 1.85179 25.9028 1.75491 25.8382 1.67923C25.7736 1.60455 25.6874 1.5662 25.5798 1.5662C25.4721 1.5662 25.3806 1.60455 25.3053 1.67923C25.23 1.75491 25.1977 1.85179 25.2085 1.96986L25.3215 3.47148C25.3322 3.50377 25.3268 3.52597 25.3053 3.53606C25.2837 3.54716 25.2622 3.54212 25.2408 3.51991L23.9813 2.64801C23.9059 2.60562 23.8306 2.58342 23.7553 2.58342C23.6153 2.58342 23.5131 2.64296 23.4485 2.76103C23.4162 2.82562 23.4001 2.8902 23.4001 2.95479C23.4001 3.11625 23.4753 3.22928 23.6261 3.29386L25.0147 3.95587C25.047 3.96697 25.0631 3.98311 25.0631 4.00431C25.0631 4.02651 25.047 4.04265 25.0147 4.05275L23.6261 4.6986C23.4646 4.78539 23.3839 4.89841 23.3839 5.03768C23.3839 5.08107 23.4054 5.14565 23.4485 5.23143C23.5131 5.35051 23.6153 5.40904 23.7553 5.40904C23.8306 5.40904 23.9059 5.38785 23.9813 5.34446L25.2408 4.47255C25.2622 4.45136 25.2837 4.45136 25.3053 4.47255C25.3268 4.48365 25.3322 4.50484 25.3215 4.53714L25.2085 6.03875C25.1977 6.15783 25.2246 6.25471 25.2892 6.32939Z" fill="white"/>
</svg>
