<svg width="21" height="15" viewBox="0 0 21 15" fill="none" xmlns="http://www.w3.org/2000/svg">
<path d="M20.4661 0.501895V14.4981H5.57822L0.615606 7.99984L5.57822 0.501895H20.4661Z" stroke="#C1C1C6"/>
<path fill-rule="evenodd" clip-rule="evenodd" d="M13.1178 7.50006L15.6241 4.99655C15.8524 4.76853 15.8524 4.39998 15.6241 4.17196C15.3959 3.94394 15.0269 3.94394 14.7986 4.17196L12.2923 6.67547L9.78601 4.17196C9.55774 3.94394 9.18877 3.94394 8.9605 4.17196C8.73222 4.39998 8.73222 4.76853 8.9605 4.99655L11.4668 7.50006L8.9605 10.0036C8.73222 10.2316 8.73222 10.6001 8.9605 10.8282C9.07434 10.9419 9.22379 10.999 9.37325 10.999C9.52271 10.999 9.67216 10.9419 9.78601 10.8282L12.2923 8.32465L14.7986 10.8282C14.9125 10.9419 15.0619 10.999 15.2114 10.999C15.3608 10.999 15.5103 10.9419 15.6241 10.8282C15.8524 10.6001 15.8524 10.2316 15.6241 10.0036L13.1178 7.50006Z" fill="#C1C1C6"/>
</svg>
