<svg width="202" height="11" viewBox="0 0 202 11" fill="none" xmlns="http://www.w3.org/2000/svg">
<path fill-rule="evenodd" clip-rule="evenodd" d="M4.07023 9.29164H5.39957V6.52334C5.39957 6.12591 5.57773 5.83811 6.08479 5.83811C6.59186 5.83811 6.77002 6.12591 6.77002 6.52334V9.97687C6.77002 10.4702 6.44111 10.6621 6.08479 10.6621H0.685224C0.328908 10.6621 0 10.4702 0 9.97687C0 9.4835 0.328908 9.29164 0.685224 9.29164H2.69978V1.37045H0.685224C0.328908 1.37045 0 1.17859 0 0.685224C0 0.191863 0.328908 0 0.685224 0H4.07023V9.29164ZM12.2166 6.01626V9.29163H16.931C17.2873 9.29163 17.6162 9.4835 17.6162 9.97686C17.6162 10.4702 17.2873 10.6621 16.931 10.6621H10.8462V6.19442C10.8462 5.16658 11.367 4.64581 12.3948 4.64581H16.2457V1.37044H11.5314C11.1751 1.37044 10.8462 1.17858 10.8462 0.685217C10.8462 0.191856 11.1751 -7.09863e-06 11.5314 -7.09863e-06H16.0813C16.5335 -7.09863e-06 16.8487 0.0685153 17.1914 0.383718C17.5751 0.740035 17.6162 1.11006 17.6162 1.60342V4.41284C17.6162 4.9062 17.5751 5.27622 17.1914 5.63254C16.8487 5.94774 16.5335 6.01626 16.0813 6.01626H12.2166ZM27.0917 1.37044H22.3774C22.021 1.37044 21.6921 1.17858 21.6921 0.685217C21.6921 0.191856 22.021 -7.09863e-06 22.3774 -7.09863e-06H27.0917C27.8729 -7.09863e-06 28.4622 0.589286 28.4622 1.37044V4.0017C28.4622 4.54988 28.3525 4.94731 27.9277 5.33104C28.3525 5.71476 28.4622 6.11219 28.4622 6.66037V9.29163C28.4622 10.0728 27.8729 10.6621 27.0917 10.6621H22.3774C22.021 10.6621 21.6921 10.4702 21.6921 9.97686C21.6921 9.4835 22.021 9.29163 22.3774 9.29163H27.0917V7.01669C27.0917 6.24924 26.7902 6.01626 26.4065 6.01626H23.7204C23.3641 6.01626 23.0352 5.8244 23.0352 5.33104C23.0352 4.83768 23.3641 4.64581 23.7204 4.64581H26.4065C26.7902 4.64581 27.0917 4.41284 27.0917 3.64539V1.37044ZM34.594 5.81069H37.2526V1.8501C37.2526 1.50749 37.4171 1.16487 37.9379 1.16487C38.4586 1.16487 38.6231 1.50749 38.6231 1.8501V5.81069C38.9794 5.81069 39.3083 6.00256 39.3083 6.49592C39.3083 6.98928 38.9794 7.18114 38.6231 7.18114V9.97686C38.6231 10.4154 38.4312 10.6621 37.9379 10.6621C37.4445 10.6621 37.2526 10.4154 37.2526 9.97686V7.18114H33.2235V0.685217C33.2235 0.342605 33.388 -7.09863e-06 33.9087 -7.09863e-06C34.4295 -7.09863e-06 34.594 0.342605 34.594 0.685217V5.81069ZM56.9577 1.37044V4.64581H59.4793C59.9179 4.64581 60.2468 4.71434 60.5757 5.02954C60.9594 5.38586 61.0005 5.71476 61.0005 6.19442V9.12718C61.0005 9.55202 60.9594 9.85352 60.6716 10.1961C60.329 10.6073 59.9727 10.6621 59.4793 10.6621H56.4369C56.0806 10.6621 55.875 10.5662 55.5324 10.4154L55.0117 10.1824C54.6416 10.018 54.2305 9.89463 54.2305 9.41497C54.2305 9.05866 54.532 8.72975 54.8883 8.72975C55.0528 8.72975 55.1761 8.77086 55.3269 8.83939L55.738 9.01754C55.9299 9.09977 56.2451 9.29163 56.4643 9.29163H59.6301V6.01626H55.5872V-7.09863e-06H60.3153C60.6716 -7.09863e-06 61.0005 0.191856 61.0005 0.685217C61.0005 1.17858 60.6716 1.37044 60.3153 1.37044H56.9577ZM66.4471 1.37044V5.81069H71.0244C71.7097 5.81069 71.8467 6.09849 71.8467 6.7289V9.7987C71.8467 10.4428 71.5726 10.6621 70.9559 10.6621H65.9675C65.3234 10.6621 65.0767 10.4291 65.0767 9.7987V0.685217C65.0767 0.370014 65.1863 -7.09863e-06 65.666 -7.09863e-06H66.4883C66.8446 -7.09863e-06 67.1324 0.328901 67.1324 0.685217C67.1324 1.09635 66.8446 1.37044 66.4471 1.37044ZM70.4762 7.1812H66.447V9.29169H70.4762V7.1812ZM81.3225 1.37044H77.2933C77.2933 1.67194 77.0467 2.05567 76.6081 2.05567C76.1696 2.05567 75.9229 1.67194 75.9229 1.37044V0.685217C75.9229 0.383718 76.1696 -7.09863e-06 76.6081 -7.09863e-06H82.693L82.6929 3.97429C82.6929 4.45395 82.7066 4.50877 82.3229 4.83768L80.4043 6.49592C80.0479 6.81112 80.0205 6.83853 80.0205 7.31819V9.97686C80.0205 10.4154 79.8287 10.6621 79.3353 10.6621C78.8419 10.6621 78.6501 10.4154 78.6501 9.97686V6.67408C78.6501 6.22183 78.6638 6.18072 79.0064 5.87922L80.8976 4.24838C81.3499 3.85095 81.3225 3.86466 81.3225 3.26166V1.37044ZM89.5098 4.64584H90.798V1.37047H89.5098V4.64584ZM88.8245 -7.09863e-06H91.4832C91.9491 -7.09863e-06 92.1684 0.328901 92.1684 0.685217V4.64581C92.5933 4.64581 92.9222 4.79656 93.1688 5.02954C93.4155 5.26252 93.5389 5.60513 93.5389 6.02997V9.29163C93.5389 10.1276 93.0181 10.6621 92.1684 10.6621H88.1393C87.2896 10.6621 86.7688 10.1276 86.7688 9.29163V6.02997C86.7688 5.60513 86.8922 5.26252 87.1389 5.02954C87.3855 4.79656 87.7145 4.64581 88.1393 4.64581V0.685217C88.1393 0.328901 88.3586 -7.09863e-06 88.8245 -7.09863e-06ZM88.1394 9.29163H92.1686V6.01626H88.1394V9.29163ZM113.861 9.29163V4.87879H109.146C108.763 4.87879 108.461 4.54988 108.461 4.19357V0.685217C108.461 0.328901 108.763 -7.09863e-06 109.146 -7.09863e-06H114.546C114.93 -7.09863e-06 115.231 0.328901 115.231 0.685217V9.97686C115.231 10.3469 114.957 10.6621 114.546 10.6621H113.861C113.45 10.6621 113.176 10.3469 113.176 9.97686C113.176 9.56572 113.463 9.29163 113.861 9.29163ZM109.832 3.50837H113.861V1.37047H109.832V3.50837ZM120.678 -7.09863e-06H124.707C125.461 -7.09863e-06 126.077 0.616695 126.077 1.37044V9.29163C126.077 10.0591 125.488 10.6621 124.707 10.6621H120.678C119.896 10.6621 119.307 10.0591 119.307 9.29163V1.37044C119.307 0.616695 119.924 -7.09863e-06 120.678 -7.09863e-06ZM120.678 9.29166H124.707V1.37047H120.678V9.29166ZM134.224 9.29163H135.553V6.52333C135.553 6.1259 135.731 5.8381 136.238 5.8381C136.745 5.8381 136.923 6.1259 136.923 6.52333V9.97686C136.923 10.4702 136.595 10.6621 136.238 10.6621H130.839C130.482 10.6621 130.153 10.4702 130.153 9.97686C130.153 9.4835 130.482 9.29163 130.839 9.29163H132.853V1.37044H130.839C130.482 1.37044 130.153 1.17858 130.153 0.685217C130.153 0.191856 130.482 -7.09863e-06 130.839 -7.09863e-06H134.224V9.29163ZM142.37 6.01626V9.29163H147.084C147.441 9.29163 147.77 9.4835 147.77 9.97686C147.77 10.4702 147.441 10.6621 147.084 10.6621H141V6.19442C141 5.16658 141.52 4.64581 142.548 4.64581H146.399V1.37044H141.685C141.329 1.37044 141 1.17858 141 0.685217C141 0.191856 141.329 -7.09863e-06 141.685 -7.09863e-06H146.235C146.687 -7.09863e-06 147.002 0.0685153 147.345 0.383718C147.728 0.740035 147.77 1.11006 147.77 1.60342V4.41284C147.77 4.9062 147.728 5.27622 147.345 5.63254C147.002 5.94774 146.687 6.01626 146.235 6.01626H142.37ZM168.091 1.37044H163.377C163.021 1.37044 162.692 1.17858 162.692 0.685217C162.692 0.191856 163.021 -7.09863e-06 163.377 -7.09863e-06H168.091C168.872 -7.09863e-06 169.462 0.589286 169.462 1.37044V4.0017C169.462 4.54988 169.352 4.94731 168.927 5.33104C169.352 5.71476 169.462 6.11219 169.462 6.66037V9.29163C169.462 10.0728 168.872 10.6621 168.091 10.6621H163.377C163.021 10.6621 162.692 10.4702 162.692 9.97686C162.692 9.4835 163.021 9.29163 163.377 9.29163H168.091V7.01669C168.091 6.24924 167.79 6.01626 167.406 6.01626H164.72C164.364 6.01626 164.035 5.8244 164.035 5.33104C164.035 4.83768 164.364 4.64581 164.72 4.64581H167.406C167.79 4.64581 168.091 4.41284 168.091 3.64539V1.37044ZM175.594 5.81069H178.252V1.8501C178.252 1.50749 178.417 1.16487 178.937 1.16487C179.458 1.16487 179.623 1.50749 179.623 1.8501V5.81069C179.979 5.81069 180.308 6.00256 180.308 6.49592C180.308 6.98928 179.979 7.18114 179.623 7.18114V9.97686C179.623 10.4154 179.431 10.6621 178.937 10.6621C178.444 10.6621 178.252 10.4154 178.252 9.97686V7.18114H174.223V0.685217C174.223 0.342605 174.388 -7.09863e-06 174.908 -7.09863e-06C175.429 -7.09863e-06 175.594 0.342605 175.594 0.685217V5.81069ZM187.111 1.37044V4.64581H189.633C190.072 4.64581 190.4 4.71434 190.729 5.02954C191.113 5.38586 191.154 5.71476 191.154 6.19442V9.12718C191.154 9.55202 191.113 9.85352 190.825 10.1961C190.483 10.6073 190.126 10.6621 189.633 10.6621H186.591C186.234 10.6621 186.029 10.5662 185.686 10.4154L185.165 10.1824C184.795 10.018 184.384 9.89463 184.384 9.41497C184.384 9.05866 184.686 8.72975 185.042 8.72975C185.206 8.72975 185.33 8.77086 185.481 8.83939L185.892 9.01754C186.084 9.09977 186.399 9.29163 186.618 9.29163H189.784V6.01626H185.741V-7.09863e-06H190.469C190.825 -7.09863e-06 191.154 0.191856 191.154 0.685217C191.154 1.17858 190.825 1.37044 190.469 1.37044H187.111ZM196.601 1.37044V5.81069H201.178C201.863 5.81069 202 6.09849 202 6.7289V9.7987C202 10.4428 201.726 10.6621 201.109 10.6621H196.121C195.477 10.6621 195.23 10.4291 195.23 9.7987V0.685217C195.23 0.370014 195.34 -7.09863e-06 195.819 -7.09863e-06H196.642C196.998 -7.09863e-06 197.286 0.328901 197.286 0.685217C197.286 1.09635 196.998 1.37044 196.601 1.37044ZM200.63 7.1812H196.601V9.29169H200.63V7.1812Z" fill="white"/>
</svg>
